<?xml version="1.0" encoding="utf-8"?>
<!-- Generator: Adobe Illustrator 27.5.0, SVG Export Plug-In . SVG Version: 6.00 Build 0)  -->
<svg version="1.1" xmlns="http://www.w3.org/2000/svg" xmlns:xlink="http://www.w3.org/1999/xlink" x="0px" y="0px"
	 viewBox="0 0 3710 3710" style="enable-background:new 0 0 3710 3710;" xml:space="preserve">
<g id="Background">
	<g>
		<g>
			<rect style="fill:#FFFFFF;" width="3710" height="3710"/>
		</g>
	</g>
</g>
<g id="Illustration">
	<g>
		<linearGradient id="SVGID_1_" gradientUnits="userSpaceOnUse" x1="3484.5833" y1="3647.8792" x2="1541.6847" y2="1579.6327">
			<stop  offset="0" style="stop-color:#DAE3FE"/>
			<stop  offset="1" style="stop-color:#E9EFFD"/>
		</linearGradient>
		<path style="fill:url(#SVGID_1_);" d="M2901.23,2818.107c-71.724,73.93-135.9,117.389-185.035,150.198
			c-479.208,319.971-1026.995,227.748-1196.357,196.226c-273.245-50.857-503.901-86.734-702.077-265.777
			c-450.314-406.841-428.411-1255.541-84.317-1781.274c40.799-62.337,384.373-571.62,933.346-643.382
			c13.427-1.755,23.445-2.755,32.22-3.684c84.925-8.992,611.187-56.448,1040.301,303.064
			c61.426,51.462,160.277,144.287,251.945,285.86C3326.434,1576.995,3327.496,2378.729,2901.23,2818.107z"/>
		<g>
			<path style="fill:#BDD0FB;" d="M2880.032,556.956c55.546,275.129,313.409,1889.423-1157.955,2403.498
				c0,0-443.338-1019.048,1118.88-2416.562C2854.623,531.666,2876.403,538.982,2880.032,556.956z"/>
			<path style="opacity:0.45;fill:#FFFFFF;" d="M2805.567,858.508c-28.668,85.026-59.057,169.357-90.184,253.456
				c-31.163,84.074-63.297,167.791-96.406,251.123c-66.213,166.666-136.162,331.887-211.165,494.861
				c-75.118,162.894-155.029,323.742-243.617,479.959c-44.041,78.238-90.94,154.926-140.738,229.758
				c-49.9,74.743-102.844,147.674-161.484,216.203c-3.465,4.049-9.556,4.522-13.605,1.058c-4.049-3.466-4.523-9.557-1.058-13.606
				l0.032-0.038l0.028-0.032c58.299-67.419,111.236-139.527,161.214-213.561c49.885-74.129,96.977-150.235,141.266-227.974
				c89.083-155.208,169.666-315.309,245.498-477.545c75.723-162.319,146.446-326.991,213.457-493.153
				c33.508-83.082,66.046-166.56,97.618-250.403c31.528-83.846,62.35-168.016,91.393-252.703l0.012-0.036
				c0.732-2.136,3.057-3.273,5.193-2.54C2805.149,854.065,2806.285,856.378,2805.567,858.508z"/>
		</g>
		<g>
			<path style="fill:#91B3FA;" d="M1972.439,3070.304c0,0-18.772-273.877,231.684-575.246
				c232.379-279.619,806.906-929.806,922.114-1271.634c5.103-15.142,27.114-12.774,28.702,3.127
				c17.04,170.561,26.145,601.089-230.731,1052.915C2592.954,2862.121,1972.439,3070.304,1972.439,3070.304z"/>
			<path style="opacity:0.45;fill:#FFFFFF;" d="M3054.025,1537.963c-1.52,37.892-7.753,75.475-16.026,112.47
				c-1.009,4.635-1.928,9.292-3.011,13.91l-3.526,13.782l-7.072,27.579l-8.217,27.257c-2.823,9.06-5.268,18.259-8.643,27.132
				c-24.578,71.835-55.025,141.773-91.427,208.489c-8.42,17.063-18.589,33.131-28.136,49.559l-14.491,24.548
				c-2.47,4.057-4.708,8.262-7.37,12.197l-7.83,11.904l-31.332,47.627c-5.048,8.062-10.922,15.541-16.495,23.234l-16.884,22.96
				l-16.887,22.961l-8.479,11.454l-8.994,11.048l-35.984,44.199c-6.051,7.313-11.879,14.852-18.114,21.98l-18.671,21.417
				l-37.343,42.834l-37.822,42.409c-12.652,14.096-25.167,28.317-38.021,42.228c-25.517,27.998-51.198,55.844-77.186,83.396
				c-25.812,27.722-52.06,55.016-78.165,82.446l-79.135,81.452c-52.797,54.227-105.678,108.336-156.651,164.083
				c-12.941,13.775-25.162,28.14-37.638,42.309c-6.327,7.016-12.154,14.422-18.155,21.696c-5.922,7.334-12.055,14.518-17.81,21.977
				c-11.183,15.151-22.957,29.929-33.052,45.831l-7.877,11.733c-1.285,1.972-2.69,3.875-3.878,5.905l-3.524,6.114l-14.117,24.48
				l-0.054,0.092c-0.565,0.98-1.818,1.317-2.799,0.752c-0.945-0.545-1.289-1.734-0.807-2.696
				c17.099-33.986,37.791-66.021,60.36-96.584c5.629-7.649,11.624-15.005,17.421-22.526c5.872-7.457,11.583-15.06,17.772-22.244
				c12.207-14.515,24.186-29.258,36.847-43.362l18.769-21.371c6.312-7.073,12.782-13.987,19.166-20.989l19.214-20.945l19.411-20.739
				c25.836-27.702,51.979-55.074,77.996-82.559c52.075-54.929,104.148-109.791,155.595-165.221
				c51.516-55.367,102.133-111.536,152.297-168.105l37.238-42.764l18.619-21.381c6.216-7.121,12.034-14.51,18.072-21.752
				l35.92-43.66l8.981-10.916l8.463-11.315l16.86-22.683c45.749-59.925,86.331-123.635,123.515-189.152
				c37.452-65.426,69.069-134.187,94.935-205.034c3.534-8.755,6.116-17.832,9.253-26.728l9.035-26.823l7.904-27.175l3.948-13.598
				c1.225-4.556,2.285-9.154,3.436-13.729c2.192-9.177,4.671-18.301,6.632-27.533l5.66-27.757
				c3.178-18.599,6.527-37.252,7.797-56.118c0.002-0.141,0.118-0.252,0.258-0.25
				C3053.914,1537.701,3054.024,1537.827,3054.025,1537.963z"/>
		</g>
		<g>
			
				<linearGradient id="SVGID_00000093167512888054064680000003825386773005622698_" gradientUnits="userSpaceOnUse" x1="1468.5707" y1="3073.5144" x2="1333.2454" y2="-932.1807">
				<stop  offset="0" style="stop-color:#09005D"/>
				<stop  offset="1" style="stop-color:#1A0F91"/>
			</linearGradient>
			<path style="fill:url(#SVGID_00000093167512888054064680000003825386773005622698_);" d="M516.499,963.169
				c0-95.557,77.464-173.02,173.021-173.02h1471.375c81.175,0,148.11,63.614,152.237,144.683l108.609,2133.218
				c3.23,63.44-46.709,116.951-110.221,118.106l-1686.381,30.649c-59.677,1.084-108.639-46.995-108.639-106.682V963.169z"/>
			<path style="fill:#91B3FA;" d="M871.607,3180.541c-0.018,0-0.035,0-0.053,0l-188.696-2.439
				c-63.096-0.818-114.427-52.819-114.427-115.917v-284.896c0-2.227,1.804-4.028,4.028-4.028c2.225,0,4.029,1.802,4.029,4.028
				v284.896c0,58.712,47.763,107.096,106.475,107.859l188.694,2.439c2.225,0.027,4.005,1.857,3.977,4.08
				C875.604,3178.771,873.806,3180.541,871.607,3180.541z"/>
			<path style="fill:#91B3FA;" d="M572.458,2693.069c-2.224,0-4.028-1.802-4.028-4.029v-46.138c0-2.227,1.804-4.029,4.028-4.029
				c2.225,0,4.029,1.802,4.029,4.029v46.138C576.487,2691.267,574.683,2693.069,572.458,2693.069z"/>
			<g>
				
					<linearGradient id="SVGID_00000123423662430097421390000017885999140817584827_" gradientUnits="userSpaceOnUse" x1="738.5305" y1="3496.6851" x2="2422.3228" y2="-72.9488">
					<stop  offset="0" style="stop-color:#4F52FF"/>
					<stop  offset="1" style="stop-color:#4042E2"/>
				</linearGradient>
				<path style="fill:url(#SVGID_00000123423662430097421390000017885999140817584827_);" d="M637.042,822.983
					c-0.18-30.572,26.707-54.234,57.003-50.126c200.93,27.248,891.874,111.521,1463.138,67.668c26.052-2,48.661,17.739,50.047,43.83
					l113.881,2142.727c1.562,29.38-20.873,54.504-50.244,56.242c-240.263,14.219-1229.742,69.184-1582.674,32.217
					c-21.48-2.25-37.785-20.335-37.912-41.932L637.042,822.983z"/>
				<path style="fill:#BDD0FB;" d="M660.71,876.678c-0.173-29.421,25.701-52.192,54.856-48.238
					c193.363,26.222,858.289,107.322,1408.043,65.12c25.071-1.924,46.828,17.071,48.162,42.18l109.594,2062.042
					c1.503,28.274-20.088,52.452-48.352,54.125c-231.215,13.683-1183.435,66.578-1523.077,31.003
					c-20.671-2.165-36.362-19.569-36.484-40.353L660.71,876.678z"/>
				<path style="opacity:0.58;fill:#FFFFFF;" d="M2092.174,1184.191H799.732c-5.756,0-10.423-4.666-10.423-10.423v-155.943
					c0-5.756,4.666-10.423,10.423-10.423h1292.442c5.756,0,10.423,4.666,10.423,10.423v155.943
					C2102.596,1179.524,2097.93,1184.191,2092.174,1184.191z"/>
				<path style="opacity:0.58;fill:#FFFFFF;" d="M2118.303,2011.724H792.265c-3.237,0-5.862-2.625-5.862-5.862v-76.671
					c0-3.237,2.624-5.862,5.862-5.862h1326.038c3.237,0,5.862,2.625,5.862,5.862v76.671
					C2124.165,2009.099,2121.54,2011.724,2118.303,2011.724z"/>
				<path style="opacity:0.58;fill:#FFFFFF;" d="M2119.885,2148.104H790.683c-2.364,0-4.279-1.916-4.279-4.279v-79.836
					c0-2.363,1.916-4.279,4.279-4.279h1329.203c2.364,0,4.28,1.916,4.28,4.279v79.836
					C2124.165,2146.188,2122.249,2148.104,2119.885,2148.104z"/>
				<path style="opacity:0.58;fill:#FFFFFF;" d="M2148.067,2926.822H792.675c-2.85,0-5.161-2.311-5.161-5.161v-78.072
					c0-2.85,2.311-5.161,5.161-5.161h1355.392c2.85,0,5.161,2.311,5.161,5.161v78.072
					C2153.228,2924.511,2150.917,2926.822,2148.067,2926.822z"/>
				<path style="opacity:0.25;fill:#FFFFFF;" d="M2090.609,1830.728H818.474c-17.712,0-32.071-14.359-32.071-32.071V1322.33
					c0-17.712,14.359-32.071,32.071-32.071h1250.565c17.148,0,31.262,13.49,32.038,30.62l21.57,476.326
					C2123.474,1815.469,2108.89,1830.728,2090.609,1830.728z"/>
				<path style="fill:#FFFFFF;" d="M2091.352,1835.713H819.216c-20.433,0-37.055-16.622-37.055-37.055v-476.327
					c0-20.433,16.622-37.058,37.055-37.058H2069.78c19.861,0,36.123,15.541,37.019,35.383l21.569,476.327
					c0.464,10.202-3.168,19.891-10.228,27.275C2111.083,1831.645,2101.566,1835.713,2091.352,1835.713z M819.216,1295.244
					c-14.934,0-27.083,12.153-27.083,27.087v476.327c0,14.934,12.149,27.083,27.083,27.083h1272.136
					c7.465,0,14.421-2.973,19.579-8.371c5.161-5.398,7.816-12.48,7.478-19.936l-21.569-476.33
					c-0.659-14.499-12.545-25.86-27.061-25.86H819.216z"/>
				<path style="opacity:0.25;fill:#FFFFFF;" d="M2110.943,2784.508H828.192c-22.466,0-40.678-18.212-40.678-40.678v-459.112
					c0-22.466,18.212-40.678,40.678-40.678h1264.953c21.853,0,39.801,17.266,40.647,39.102l17.798,459.112
					C2152.484,2765.321,2134.027,2784.508,2110.943,2784.508z"/>
				<path style="fill:#FFFFFF;" d="M2110.943,2789.493H828.194c-25.181,0-45.666-20.485-45.666-45.663v-459.114
					c0-25.178,20.484-45.662,45.666-45.662h1264.953c24.633,0,44.676,19.28,45.63,43.893l17.797,459.114
					c0.483,12.523-4.035,24.396-12.724,33.426C2135.161,2784.52,2123.476,2789.493,2110.943,2789.493z M828.194,2249.025
					c-19.683,0-35.694,16.012-35.694,35.691v459.114c0,19.68,16.012,35.691,35.694,35.691h1282.75c9.796,0,18.93-3.889,25.72-10.945
					c6.794-7.06,10.325-16.34,9.945-26.132l-17.797-459.108c-0.747-19.241-16.411-34.312-35.665-34.312H828.194z"/>
				
					<rect x="1182.126" y="1290.221" transform="matrix(0.9999 -0.0166 0.0166 0.9999 -25.7548 19.9323)" style="fill:#FFFFFF;" width="9.973" height="540.543"/>
				
					<rect x="1674.353" y="1290.16" transform="matrix(0.9996 -0.027 0.027 0.9996 -41.508 45.8962)" style="fill:#FFFFFF;" width="9.968" height="540.665"/>
				
					<rect x="1187.063" y="1449.353" transform="matrix(0.9999 -0.0143 0.0143 0.9999 -20.6569 23.7386)" style="fill:#FFFFFF;" width="920.544" height="9.972"/>
				<rect x="1189.014" y="1660.083" style="fill:#FFFFFF;" width="927.324" height="9.971"/>
				
					<rect x="915.736" y="2509.287" transform="matrix(0.0124 -0.9999 0.9999 0.0124 -1342.7545 3669.0852)" style="fill:#FFFFFF;" width="540.51" height="9.972"/>
				<rect x="1192.338" y="2368.04" style="fill:#FFFFFF;" width="947.266" height="9.971"/>
				<rect x="1185.691" y="2497.666" style="fill:#FFFFFF;" width="957.237" height="9.971"/>
				
					<rect x="1662.594" y="2164.362" transform="matrix(0.0125 -0.9999 0.9999 0.0125 -997.8812 4279.3262)" style="fill:#FFFFFF;" width="9.972" height="961.009"/>
			</g>
			
				<linearGradient id="SVGID_00000042006555440428914430000013270518641073072566_" gradientUnits="userSpaceOnUse" x1="1680.6228" y1="279.6668" x2="1003.8427" y2="1169.9552">
				<stop  offset="0" style="stop-color:#09005D"/>
				<stop  offset="1" style="stop-color:#1A0F91"/>
			</linearGradient>
			<path style="fill:url(#SVGID_00000042006555440428914430000013270518641073072566_);" d="M1516.463,499.295
				c-53.148-36.974-99.361-36.242-131.893-26.642c-29.676,8.756-48.91,37.408-46.088,68.22l14.03,153.132l166.945,14.816
				C1519.457,708.82,1620.695,571.807,1516.463,499.295z M1443.047,622.835c-22.99,0-41.627-18.637-41.627-41.627
				s18.637-41.628,41.627-41.628c22.991,0,41.628,18.637,41.628,41.628S1466.037,622.835,1443.047,622.835z"/>
			<path style="fill:#91B3FA;" d="M1369.188,629.588c-2.059,0-3.816-1.57-4.007-3.663l-2.235-24.387
				c-0.204-2.215,1.428-4.174,3.643-4.379c2.26-0.212,4.178,1.428,4.378,3.647l2.234,24.387c0.205,2.215-1.428,4.174-3.643,4.378
				C1369.435,629.584,1369.31,629.588,1369.188,629.588z M1364.81,581.797c-2.059,0-3.816-1.57-4.007-3.663l-1.698-18.513
				c-2.691-29.352,15.779-56.682,43.914-64.987c19.926-5.881,40.456-6.723,61.015-2.506c2.179,0.444,3.584,2.577,3.137,4.756
				c-0.447,2.176-2.559,3.568-4.754,3.135c-19.259-3.942-38.473-3.159-57.118,2.341c-24.456,7.219-40.511,30.992-38.172,56.528
				l1.697,18.513c0.205,2.215-1.428,4.174-3.643,4.379C1365.056,581.794,1364.932,581.797,1364.81,581.797z"/>
			
				<linearGradient id="SVGID_00000093150386191005979190000002112457809741924780_" gradientUnits="userSpaceOnUse" x1="1754.8605" y1="336.0989" x2="1078.0796" y2="1226.3883">
				<stop  offset="0" style="stop-color:#09005D"/>
				<stop  offset="1" style="stop-color:#1A0F91"/>
			</linearGradient>
			<path style="fill:url(#SVGID_00000093150386191005979190000002112457809741924780_);" d="M1124.662,792.966v-76.99
				c0-26.577,22.027-47.863,48.589-46.953l530.812,18.187c23.557,0.807,42.634,19.401,44.046,42.93l4.436,73.976L1124.662,792.966z"
				/>
			<path style="fill:#91B3FA;" d="M1322.588,698.033h-22.827c-2.225,0-4.029-1.802-4.029-4.028c0-2.227,1.804-4.029,4.029-4.029
				h22.827c2.225,0,4.029,1.802,4.029,4.029C1326.616,696.231,1324.813,698.033,1322.588,698.033z"/>
			<path style="fill:#91B3FA;" d="M1153.392,768.79c-2.224,0-4.028-1.802-4.028-4.029v-31.146c0-24.065,19.577-43.64,43.642-43.64
				h83.925c2.225,0,4.029,1.802,4.029,4.029c0,2.227-1.804,4.028-4.029,4.028h-83.925c-19.621,0-35.585,15.964-35.585,35.584v31.146
				C1157.421,766.989,1155.617,768.79,1153.392,768.79z"/>
			
				<linearGradient id="SVGID_00000117672174012813454490000011566971424225494934_" gradientUnits="userSpaceOnUse" x1="1669.5743" y1="390.5568" x2="1202.2716" y2="1248.6196">
				<stop  offset="0" style="stop-color:#4F52FF"/>
				<stop  offset="1" style="stop-color:#4042E2"/>
			</linearGradient>
			<path style="fill:url(#SVGID_00000117672174012813454490000011566971424225494934_);" d="M908.378,812.407
				c1.281-26.66,23.269-47.618,49.961-47.619l928.224-0.025c33.377-0.001,61.911,24.018,67.604,56.905l0.786,4.538
				c6.236,36.022-21.498,68.97-58.056,68.97H944.593c-21.879,0-39.314-18.293-38.263-40.146L908.378,812.407z"/>
		</g>
		<g>
			
				<linearGradient id="SVGID_00000172400615526445159000000011166761948637463460_" gradientUnits="userSpaceOnUse" x1="2249.2292" y1="2122.4265" x2="-1597.6267" y2="2741.1755">
				<stop  offset="0" style="stop-color:#E1473D"/>
				<stop  offset="1" style="stop-color:#E9605A"/>
			</linearGradient>
			<path style="fill:url(#SVGID_00000172400615526445159000000011166761948637463460_);" d="M1961.954,2221.54
				c-191.627,108.992-351.6,102.194-532.496,7.127c-11.706-6.152-18.821-18.5-18.191-31.709l0.365-7.654
				c1.114-23.39,25.026-38.66,46.712-29.823c157.078,64.01,275.211,99.113,471.903,2.055c21.65-10.683,47.211,4.111,48.827,28.199
				l0,0C1979.946,2202.742,1973.285,2215.095,1961.954,2221.54z"/>
			
				<linearGradient id="SVGID_00000003812300741511112660000014907794220355686029_" gradientUnits="userSpaceOnUse" x1="2255.3223" y1="2160.311" x2="-1591.5316" y2="2779.0601">
				<stop  offset="0" style="stop-color:#E1473D"/>
				<stop  offset="1" style="stop-color:#E9605A"/>
			</linearGradient>
			<path style="fill:url(#SVGID_00000003812300741511112660000014907794220355686029_);" d="M1925.643,2309.865l105.786-149.923
				c3.222-4.566,0.406-10.918-5.141-11.597l-175.223-21.44c-6.52-0.798-11.475,5.736-8.949,11.799
				c40.028,55.529,62.569,112.177,70.706,169.746C1915.05,2313.802,1922.301,2314.602,1925.643,2309.865z"/>
		</g>
		<g>
			
				<linearGradient id="SVGID_00000098918109313342219460000000093279215975389629_" gradientUnits="userSpaceOnUse" x1="1272.5819" y1="1027.7832" x2="2976.8313" y2="928.389">
				<stop  offset="0" style="stop-color:#E1473D"/>
				<stop  offset="1" style="stop-color:#E9605A"/>
			</linearGradient>
			<path style="fill:url(#SVGID_00000098918109313342219460000000093279215975389629_);" d="M1364.491,1021.514
				c192.915-119.168,357.604-118.137,547.087-27.153c12.262,5.888,20.035,18.315,19.88,31.916l-0.09,7.881
				c-0.274,24.084-24.285,40.671-46.904,32.395c-163.844-59.948-286.58-91.631-485.146,15.459
				c-21.856,11.787-48.681-2.468-51.239-27.168l0,0C1346.697,1041.507,1353.083,1028.561,1364.491,1021.514z"/>
			
				<linearGradient id="SVGID_00000052077302833781145510000004649322231884894109_" gradientUnits="userSpaceOnUse" x1="1272.7283" y1="1030.2937" x2="2976.9753" y2="930.8997">
				<stop  offset="0" style="stop-color:#E1473D"/>
				<stop  offset="1" style="stop-color:#E9605A"/>
			</linearGradient>
			<path style="fill:url(#SVGID_00000052077302833781145510000004649322231884894109_);" d="M1398.526,929.372l-103.155,158.044
				c-3.142,4.814-0.011,11.238,5.717,11.729l180.91,15.513c6.731,0.577,11.582-6.323,8.76-12.461
				c-43.212-55.588-68.491-112.976-78.999-171.849C1409.267,924.931,1401.785,924.379,1398.526,929.372z"/>
		</g>
		<g>
			<g>
				<g>
					
						<linearGradient id="SVGID_00000065045751195898085910000000341628500053198518_" gradientUnits="userSpaceOnUse" x1="-3814.0562" y1="3157.6172" x2="-3702.5435" y2="3157.6172" gradientTransform="matrix(-1 0 0 1 -752.8245 0)">
						<stop  offset="0" style="stop-color:#09005D"/>
						<stop  offset="1" style="stop-color:#1A0F91"/>
					</linearGradient>
					<path style="fill:url(#SVGID_00000065045751195898085910000000341628500053198518_);" d="M3045.708,3118.323
						c0,0,12.391,19.532,15.509,74.219c0.29,5.095-3.746,9.436-8.849,9.436h-96.913c-3.9,0-6.682-3.823-5.434-7.517
						c5.679-16.808,22.85-57.787,61.163-81.204L3045.708,3118.323z"/>
					
						<linearGradient id="SVGID_00000178173433682583500000000015008798782407040952_" gradientUnits="userSpaceOnUse" x1="-3802.7439" y1="3105.7988" x2="-3757.5186" y2="3105.7988" gradientTransform="matrix(-1 0 0 1 -752.8245 0)">
						<stop  offset="0" style="stop-color:#FEBBBA"/>
						<stop  offset="1" style="stop-color:#FF928E"/>
					</linearGradient>
					<path style="fill:url(#SVGID_00000178173433682583500000000015008798782407040952_);" d="M3049.919,3081.268l-5.481,45.962
						c-0.473,3.965-3.581,7.139-7.548,7.597c-5.3,0.61-13.005,1.041-20.492-0.194c-6.806-1.123-11.704-7.184-11.704-14.083v-44.375
						L3049.919,3081.268z"/>
					
						<linearGradient id="SVGID_00000078763019039517963610000000521151450472261537_" gradientUnits="userSpaceOnUse" x1="-3576.9119" y1="3155.8345" x2="-3401.9438" y2="3155.8345" gradientTransform="matrix(-1 0 0 1 -752.8245 0)">
						<stop  offset="0" style="stop-color:#09005D"/>
						<stop  offset="1" style="stop-color:#1A0F91"/>
					</linearGradient>
					<path style="fill:url(#SVGID_00000078763019039517963610000000521151450472261537_);" d="M2805.928,3113.257
						c0,0,18.55,28.832,18.153,68.409c-0.094,9.322-7.898,16.747-17.221,16.747h-150.516c-7.048,0-9.909-9.056-4.142-13.107
						c28.482-20,84.463-57.364,124.952-72.049H2805.928z"/>
					
						<linearGradient id="SVGID_00000057136695984049338000000013343150513675395495_" gradientUnits="userSpaceOnUse" x1="-3574.2537" y1="3085.7168" x2="-3529.2769" y2="3085.7168" gradientTransform="matrix(-1 0 0 1 -752.8245 0)">
						<stop  offset="0" style="stop-color:#FEBBBA"/>
						<stop  offset="1" style="stop-color:#FF928E"/>
					</linearGradient>
					<path style="fill:url(#SVGID_00000057136695984049338000000013343150513675395495_);" d="M2821.429,3063.621l-11.692,56.764
						c-1.307,6.349-7.519,10.618-13.845,9.206c-3.847-0.858-8.384-2.502-13.232-5.534c-4.608-2.881-6.943-8.362-6.002-13.714
						l12.094-68.769L2821.429,3063.621z"/>
					
						<linearGradient id="SVGID_00000140701013204153526390000012751109007039710866_" gradientUnits="userSpaceOnUse" x1="-3830.8447" y1="2686.7627" x2="-3524.2249" y2="2686.7627" gradientTransform="matrix(-1 0 0 1 -752.8245 0)">
						<stop  offset="0" style="stop-color:#09005D"/>
						<stop  offset="1" style="stop-color:#1A0F91"/>
					</linearGradient>
					<path style="fill:url(#SVGID_00000140701013204153526390000012751109007039710866_);" d="M3028.444,2274.4
						c0,0,40.652,35.84,48.303,78.961c7.651,43.12-21.676,743.964-21.676,743.964s-40.651,6.763-61.606-5.935
						c0,0-24.854-454.843-43.746-559.946c0,0-99.075,471.158-126.526,556.29c0,0-39.163,4.764-51.792-2.688
						c0,0,25.952-610.752,58.563-719.334L3028.444,2274.4z"/>
					
						<linearGradient id="SVGID_00000049908939298752411210000000141435320593593246_" gradientUnits="userSpaceOnUse" x1="2946.8198" y1="2467.1604" x2="3009.5527" y2="2467.1604">
						<stop  offset="0" style="stop-color:#4F52FF"/>
						<stop  offset="1" style="stop-color:#4042E2"/>
					</linearGradient>
					<path style="fill:url(#SVGID_00000049908939298752411210000000141435320593593246_);" d="M2950.904,2516.325
						c-0.345,0-0.69-0.042-1.036-0.133c-2.178-0.568-3.484-2.797-2.916-4.974l17.268-66.239c0.26-0.993,0.882-1.851,1.742-2.406
						l37.308-23.931c1.907-1.219,4.425-0.664,5.635,1.232c1.216,1.896,0.669,4.419-1.227,5.635l-35.969,23.07l-16.863,64.694
						C2954.368,2515.109,2952.716,2516.325,2950.904,2516.325z"/>
					
						<linearGradient id="SVGID_00000044895801970856325130000009482017394711687097_" gradientUnits="userSpaceOnUse" x1="-1783.0847" y1="1424.8069" x2="-2348.157" y2="2650.3523" gradientTransform="matrix(-1 0 0 1 652.0643 0)">
						<stop  offset="0" style="stop-color:#FF928E"/>
						<stop  offset="1" style="stop-color:#FE7062"/>
					</linearGradient>
					<path style="fill:url(#SVGID_00000044895801970856325130000009482017394711687097_);" d="M2627.275,1869.439
						c171.133-14.207,215.861,21.207,215.861,21.207l-82.24,129.834c0,0-168.155-3.322-288.643-96.189
						c22.549-24.285,38.21-51.123,48.254-72.021C2551.577,1865.182,2587.356,1872.753,2627.275,1869.439z"/>
					
						<linearGradient id="SVGID_00000160876395598365005960000006140994400159900050_" gradientUnits="userSpaceOnUse" x1="-3273.3313" y1="1768.7501" x2="-3106.1765" y2="1768.7501" gradientTransform="matrix(-1 0 0 1 -752.8245 0)">
						<stop  offset="0" style="stop-color:#FEBBBA"/>
						<stop  offset="1" style="stop-color:#FF928E"/>
					</linearGradient>
					<path style="fill:url(#SVGID_00000160876395598365005960000006140994400159900050_);" d="M2359.284,1618.24
						c0.23-5.484,7.662-6.976,9.992-2.006l21.837,46.597c4.218,9.004,5.571,19.085,3.874,28.882l-7.66,27.121
						c-2.291,13.227,1.164,26.778,9.548,37.261c20.064,25.084,62.797,70.896,123.631,96.174
						c-10.044,20.898-25.705,47.736-48.254,72.021c-44.21-34.074-82.012-80.189-102.724-142.64
						c-9.923-3.048-16.553-12.391-16.16-22.764L2359.284,1618.24z"/>
					
						<linearGradient id="SVGID_00000119813991597925065940000013699134893138851208_" gradientUnits="userSpaceOnUse" x1="3307.8804" y1="699.7599" x2="3028.7" y2="1427.6228">
						<stop  offset="0" style="stop-color:#FF928E"/>
						<stop  offset="1" style="stop-color:#FE7062"/>
					</linearGradient>
					<path style="fill:url(#SVGID_00000119813991597925065940000013699134893138851208_);" d="M2570.945,1944.712
						c60.245-64.917,174.998-94.246,241.437-106.293c29.107-5.278,57.798,10.919,68.112,38.644
						c29.898,80.373,111.214,289.473,126.975,325.411c12.931,29.483,26.433,58.278,35.012,76.281
						c5.125,10.755,0.647,23.625-10.085,28.797c-55.898,26.943-156.48,57.426-197.257,69.319
						c-8.969,2.616-17.901-4.118-17.901-13.461c0-7.923-2.154-15.7-6.231-22.493l-154.433-257.351
						c-96.257,106.728-180.552,116.487-245.307,93.127c10.888-33.651,18.013-67.364,21.43-101.141
						C2528.362,2059.163,2570.945,1944.712,2570.945,1944.712z"/>
					
						<linearGradient id="SVGID_00000071534623501075388430000013250863398410575758_" gradientUnits="userSpaceOnUse" x1="-2854.2356" y1="1760.3221" x2="-3263.0251" y2="2268.8955" gradientTransform="matrix(-1 0 0 1 -752.8245 0)">
						<stop  offset="0" style="stop-color:#FEBBBA"/>
						<stop  offset="1" style="stop-color:#FF928E"/>
					</linearGradient>
					<path style="fill:url(#SVGID_00000071534623501075388430000013250863398410575758_);" d="M2247.644,2038.762l31.274-18.282
						c55.892,38.385,115.534,61.624,153.78,55.071c-3.418,33.777-10.543,67.49-21.43,101.141
						C2325.957,2145.917,2247.644,2038.762,2247.644,2038.762z"/>
					
						<linearGradient id="SVGID_00000072992737906206313020000010793570214153292675_" gradientUnits="userSpaceOnUse" x1="-2865.2966" y1="1922.8911" x2="-3098.6602" y2="2213.2178" gradientTransform="matrix(-1 0 0 1 -752.8245 0)">
						<stop  offset="0" style="stop-color:#FEBBBA"/>
						<stop  offset="1" style="stop-color:#FF928E"/>
					</linearGradient>
					<path style="fill:url(#SVGID_00000072992737906206313020000010793570214153292675_);" d="M2099.115,2045.343
						c19.449-10.584,77.159-19.688,77.159-19.688s66.335-38.809,85.431-46.448c15.86-6.345,22.686,17.376,24.544,25.597
						c0.38,1.677,0.552,2.709,0.552,2.709l-2.454,15.776l-67.014,29.783c-14.344,6.375-30.171,8.671-45.738,6.634l-71.552-9.361
						c-1.149-0.151-2.07-1.024-2.283-2.164C2097.551,2047.041,2098.097,2045.896,2099.115,2045.343z"/>
					
						<linearGradient id="SVGID_00000173146717311218544420000017180807728604658566_" gradientUnits="userSpaceOnUse" x1="-3301.1616" y1="1533.6368" x2="-3650.9614" y2="2176.3599" gradientTransform="matrix(-1 0 0 1 -752.8245 0)">
						<stop  offset="0" style="stop-color:#FEBBBA"/>
						<stop  offset="1" style="stop-color:#FF928E"/>
					</linearGradient>
					<path style="fill:url(#SVGID_00000173146717311218544420000017180807728604658566_);" d="M2720.997,1719.196l51.318,125.229
						c0,0-58.966,40.814-106.404,36.929l-25.612-112.603L2720.997,1719.196z"/>
					<g>
						
							<linearGradient id="SVGID_00000054953703022074816240000003709204433371259583_" gradientUnits="userSpaceOnUse" x1="-2910.3181" y1="1716.2367" x2="-3064.9097" y2="1920.7488" gradientTransform="matrix(-0.817 -0.5767 -0.5767 0.817 1270.6034 -1428.4956)">
							<stop  offset="0" style="stop-color:#FEBBBA"/>
							<stop  offset="1" style="stop-color:#FF928E"/>
						</linearGradient>
						<path style="fill:url(#SVGID_00000054953703022074816240000003709204433371259583_);" d="M2634.309,1633.825
							c-1.175,1.665-37.125,131.54-37.125,131.54l74.593,18.951l52.362-118.032
							C2724.137,1666.283,2653.986,1605.947,2634.309,1633.825z"/>
						
							<linearGradient id="SVGID_00000032650561368721040970000000323781419638885043_" gradientUnits="userSpaceOnUse" x1="-3028.3818" y1="1765.5699" x2="-2843.7192" y2="1765.5699" gradientTransform="matrix(-0.817 -0.5767 -0.5767 0.817 1270.6034 -1428.4956)">
							<stop  offset="0" style="stop-color:#09005D"/>
							<stop  offset="1" style="stop-color:#1A0F91"/>
						</linearGradient>
						<path style="fill:url(#SVGID_00000032650561368721040970000000323781419638885043_);" d="M2696.048,1684.216l-22.698,64.293
							c-0.292,0.825-0.681,1.587-1.184,2.302c-3.081,4.377-14.782,18.656-28.662,5.794c-12.595-11.672-24.262-22.136-35.038-24.037
							c-4.838-0.852-9.525,2.1-10.834,6.836c-3.263,11.8-10.125,38.529-12.544,62.66c-0.49,4.897,2.89,9.323,7.726,10.241
							c14.569,2.767,45.458,7.742,71.247,5.924c3.494-0.246,6.57-2.343,8.027-5.528c7.106-15.529,28.881-62.647,36.979-74.839
							c7.602-11.443,26.236-11.122,34.051-10.429c2.562,0.227,5.082-0.598,7.016-2.294c6.837-5.993,19.849-21.293,1.545-39.609
							c-3.831-3.833-3.728-10.017,0.22-13.73c7.86-7.39,16.267-20.498,3.171-36.755c-13.311-16.524-30.882-13.894-41.648-9.966
							c-4.353,1.589-9.102-0.251-11.467-4.236c-1.347-2.268-3.697-3.984-7.772-3.634c-5.49,0.472-10.107-4.11-10.009-9.619
							c0.191-10.586-3.599-23.96-21.962-29.675c-32.585-10.142-52.905,21.338-54.918,44.829
							c-2.012,23.49,33.941,32.477,55.083,30.893c16.075-1.204,28.009,14.728,32.806,22.434
							C2696.702,1678.512,2697.006,1681.505,2696.048,1684.216z"/>
						
							<linearGradient id="SVGID_00000003802035686906176230000002308323030504518574_" gradientUnits="userSpaceOnUse" x1="-3136.7351" y1="1878.1946" x2="-3012.739" y2="1750.9779" gradientTransform="matrix(-0.817 -0.5767 -0.5767 0.817 1270.6034 -1428.4956)">
							<stop  offset="0" style="stop-color:#FEBBBA"/>
							<stop  offset="1" style="stop-color:#FF928E"/>
						</linearGradient>
						<path style="fill:url(#SVGID_00000003802035686906176230000002308323030504518574_);" d="M2700.569,1761.188
							c0,0,5.264-40.78,22.228-42.778c16.964-1.998,33.476,11.944,16.61,34.833
							C2718.428,1781.715,2700.569,1761.188,2700.569,1761.188z"/>
					</g>
				</g>
			</g>
			<g>
				<g>
					<g>
						
							<rect x="1295.292" y="1459.399" transform="matrix(1 -0.0032 0.0032 1 -5.5739 6.0632)" style="fill:#7D97F4;" width="1169.14" height="548.707"/>
						<path style="opacity:0.5;fill:#FFFFFF;" d="M2399.365,1573.712l1.005,311.91c-25.104,0.081-45.976,24.357-45.886,52.156
							c0.003,0.883,0.185,0.659,0.241,4.246l-943.683,3.039c0.033-3.587,0.078-3.364,0.075-4.247
							c-0.09-27.8-20.672-51.099-46.197-51.016c-0.375,0.001-0.99-0.796-0.99-0.796l-0.982-304.89
							c43.035-0.138,47.109-29.257,47.019-57.056c-0.002-0.883-0.231-1.592-0.276-1.592l943.682-3.039
							c-0.044,0-0.225,0.711-0.222,1.594C2353.24,1551.819,2374.26,1573.792,2399.365,1573.712z"/>
						<g>
							
								<linearGradient id="SVGID_00000158749040474269480490000001870259834435878309_" gradientUnits="userSpaceOnUse" x1="8376.4502" y1="5755.1846" x2="8258.917" y2="7267.437" gradientTransform="matrix(1 -0.0032 0.0032 1 -6505.1274 -4117.8735)">
								<stop  offset="0" style="stop-color:#50E7B7"/>
								<stop  offset="0.9964" style="stop-color:#323992"/>
							</linearGradient>
							
								<circle style="fill:url(#SVGID_00000158749040474269480490000001870259834435878309_);" cx="1880.72" cy="1731.559" r="171.494"/>
							<g>
								<path style="fill:#FFFFFF;" d="M1863.755,1847.297l-0.058-18.133c-18.906-0.697-37.618-5.098-50.917-10.869
									c-4.748-2.06-7.184-7.375-5.837-12.373l4.552-16.906c1.67-6.202,8.399-9.428,14.33-6.965
									c13.192,5.48,29.471,9.797,47.011,9.741c18.208-0.059,31.766-6.275,31.725-18.929c-0.036-11.418-10.55-18.173-35.878-24.88
									c-36.139-9.759-62.113-25.415-62.215-57.201c-0.092-28.702,20.823-50.68,57.219-56.66l-0.058-18.136
									c-0.019-5.835,4.696-10.58,10.532-10.6l10.654-0.034c5.836-0.019,10.581,4.697,10.6,10.532l0.053,16.282
									c17.495,0.644,30.237,3.594,40.354,7.113c5.183,1.802,8.03,7.37,6.61,12.671l-4.186,15.635
									c-1.614,6.029-8.042,9.349-13.887,7.161c-9.314-3.488-22.48-7.109-39.578-7.054c-21.603,0.069-27.745,9.039-27.72,17.063
									c0.032,9.875,13.015,16.622,41.125,25.174c40.158,11.907,56.876,28.517,56.972,58.452
									c0.088,27.465-20.199,52.22-59.681,58.52l0.066,20.294c0.018,5.835-4.697,10.581-10.532,10.6l-10.655,0.035
									C1868.52,1857.848,1863.774,1853.132,1863.755,1847.297z"/>
							</g>
						</g>
					</g>
					<path style="fill:#FFFFFF;" d="M1326.759,1601.885c-0.101-0.26-0.158-0.543-0.16-0.839l-0.34-105.796
						c-0.002-1.29,1.036-2.336,2.326-2.34l285.108-0.917c1.289-0.006,2.346,1.033,2.341,2.323c0.003,1.29-1.036,2.336-2.325,2.34
						l-282.778,0.91l0.336,103.463c0.002,1.29-1.036,2.336-2.326,2.34C1327.949,1603.373,1327.098,1602.756,1326.759,1601.885z"/>
					<path style="fill:#FFFFFF;" d="M2143.846,1974.027c-0.101-0.26-0.158-0.543-0.16-0.838c-0.003-1.29,1.037-2.336,2.325-2.34
						l282.781-0.911l-0.336-103.464c-0.002-1.29,1.036-2.336,2.325-2.34c1.289-0.006,2.344,1.028,2.341,2.323l0.341,105.797
						c0,0.62-0.244,1.214-0.679,1.653c-0.436,0.437-1.027,0.686-1.647,0.687l-285.112,0.919
						C2145.036,1975.516,2144.186,1974.899,2143.846,1974.027z"/>
				</g>
				<g>
					<g>
						
							<linearGradient id="SVGID_00000028295264151856615980000012687482175566208174_" gradientUnits="userSpaceOnUse" x1="2261.5278" y1="713.3227" x2="1586.6156" y2="2474.1833">
							<stop  offset="0" style="stop-color:#4F52FF"/>
							<stop  offset="1" style="stop-color:#4042E2"/>
						</linearGradient>
						<polygon style="fill:url(#SVGID_00000028295264151856615980000012687482175566208174_);" points="2450.529,2020.138 
							1281.395,2023.903 1279.628,1475.199 2448.761,1471.434 						"/>
						<path style="opacity:0.5;fill:#FFFFFF;" d="M2384.582,1587.628l1.005,311.91c-25.104,0.081-45.976,24.357-45.886,52.156
							c0.003,0.883,0.185,0.659,0.241,4.246l-943.683,3.039c0.033-3.587,0.078-3.364,0.075-4.247
							c-0.09-27.8-20.672-51.099-46.197-51.016c-0.375,0.001-0.99-0.796-0.99-0.796l-0.982-304.89
							c43.035-0.138,47.109-29.257,47.019-57.056c-0.002-0.883-0.231-1.592-0.276-1.592l943.682-3.039
							c-0.044,0-0.225,0.711-0.222,1.594C2338.457,1565.736,2359.478,1587.709,2384.582,1587.628z"/>
						<g>
							
								<linearGradient id="SVGID_00000173863239465831540420000001092673804278962577_" gradientUnits="userSpaceOnUse" x1="8361.6221" y1="5769.0537" x2="8244.0898" y2="7281.3057" gradientTransform="matrix(1 -0.0032 0.0032 1 -6505.1274 -4117.8735)">
								<stop  offset="0" style="stop-color:#50E7B7"/>
								<stop  offset="0.9964" style="stop-color:#323992"/>
							</linearGradient>
							
								<circle style="fill:url(#SVGID_00000173863239465831540420000001092673804278962577_);" cx="1865.937" cy="1745.476" r="171.494"/>
							<g>
								<path style="fill:#FFFFFF;" d="M1848.972,1861.214l-0.058-18.133c-18.906-0.697-37.618-5.098-50.917-10.869
									c-4.749-2.06-7.184-7.375-5.837-12.373l4.552-16.906c1.67-6.202,8.399-9.428,14.33-6.965
									c13.192,5.48,29.471,9.797,47.01,9.741c18.208-0.059,31.767-6.275,31.726-18.929c-0.036-11.418-10.55-18.173-35.878-24.88
									c-36.139-9.759-62.113-25.415-62.215-57.201c-0.092-28.702,20.823-50.68,57.219-56.66l-0.058-18.136
									c-0.019-5.835,4.696-10.58,10.532-10.6l10.654-0.034c5.836-0.019,10.581,4.697,10.6,10.532l0.053,16.282
									c17.495,0.644,30.237,3.594,40.354,7.113c5.183,1.802,8.03,7.37,6.611,12.671l-4.186,15.635
									c-1.614,6.029-8.042,9.349-13.887,7.161c-9.314-3.488-22.48-7.109-39.577-7.054c-21.603,0.069-27.745,9.039-27.72,17.063
									c0.032,9.875,13.015,16.622,41.125,25.174c40.158,11.907,56.876,28.517,56.972,58.452
									c0.088,27.465-20.199,52.22-59.681,58.52l0.066,20.294c0.018,5.835-4.697,10.581-10.532,10.6l-10.655,0.035
									C1853.737,1871.765,1848.991,1867.049,1848.972,1861.214z"/>
							</g>
						</g>
					</g>
					<path style="fill:#FFFFFF;" d="M1311.976,1615.801c-0.101-0.26-0.158-0.543-0.16-0.839l-0.34-105.796
						c-0.003-1.29,1.036-2.336,2.326-2.34l285.108-0.917c1.288-0.006,2.346,1.033,2.341,2.323c0.002,1.29-1.036,2.336-2.326,2.341
						l-282.778,0.91l0.336,103.463c0.002,1.29-1.036,2.336-2.326,2.34C1313.166,1617.29,1312.315,1616.672,1311.976,1615.801z"/>
					<path style="fill:#FFFFFF;" d="M2129.063,1987.944c-0.101-0.26-0.158-0.543-0.16-0.838c-0.002-1.29,1.037-2.336,2.326-2.34
						l282.781-0.911l-0.336-103.464c-0.002-1.29,1.037-2.336,2.326-2.34c1.289-0.006,2.344,1.028,2.341,2.323l0.341,105.797
						c0.001,0.62-0.244,1.214-0.679,1.653c-0.436,0.437-1.027,0.686-1.647,0.687l-285.112,0.919
						C2130.253,1989.432,2129.403,1988.815,2129.063,1987.944z"/>
				</g>
				<g>
					<g>
						<g>
							
								<rect x="1267.473" y="1490.124" transform="matrix(1 -0.0051 0.0051 1 -8.9446 9.4364)" style="fill:#7D97F4;" width="1169.14" height="548.707"/>
							<path style="fill:#BDD0FB;" d="M2371.25,1604.003l1.586,311.908c-25.104,0.128-46.199,24.177-46.058,51.976
								c0.004,0.883-0.082,0.393-0.02,3.979l-943.675,4.797c0.027-3.587,0.073-3.097,0.069-3.98
								c-0.141-27.799-20.5-50.927-46.024-50.797c-0.375,0.002-0.724-0.663-0.724-0.663l-1.55-304.887
								c43.035-0.219,46.786-29.61,46.644-57.41c-0.005-0.883-0.503-1.857-0.547-1.857l943.675-4.796
								c-0.044,0,0.044,0.977,0.049,1.859C2324.816,1581.932,2346.146,1604.131,2371.25,1604.003z"/>
							<g>
								
									<ellipse transform="matrix(0.7071 -0.7071 0.7071 0.7071 -703.9564 1826.1385)" style="fill:#7D97F4;" cx="1852.366" cy="1762.82" rx="171.494" ry="171.494"/>
								<g>
									<path style="fill:#FFFFFF;" d="M1835.627,1878.599l-0.092-18.133c-18.908-0.661-37.628-5.028-50.937-10.773
										c-4.753-2.052-7.197-7.362-5.86-12.363l4.52-16.914c1.658-6.205,8.381-9.444,14.317-6.991
										c13.202,5.456,29.489,9.742,47.029,9.652c18.207-0.092,31.754-6.334,31.69-18.988
										c-0.058-11.417-10.584-18.152-35.925-24.813c-36.157-9.691-62.16-25.299-62.321-57.085
										c-0.146-28.702,20.729-50.719,57.113-56.766l-0.092-18.136c-0.029-5.835,4.677-10.589,10.512-10.619l10.654-0.054
										c5.836-0.03,10.59,4.677,10.619,10.512l0.083,16.282c17.496,0.611,30.244,3.538,40.367,7.038
										c5.186,1.792,8.044,7.355,6.634,12.658l-4.157,15.643c-1.603,6.032-8.024,9.365-13.874,7.187
										c-9.321-3.471-22.493-7.068-39.591-6.981c-21.602,0.11-27.728,9.09-27.688,17.115c0.05,9.875,13.046,16.597,41.173,25.097
										c40.18,11.831,56.928,28.411,57.08,58.346c0.14,27.466-20.102,52.258-59.571,58.632l0.103,20.294
										c0.03,5.835-4.677,10.59-10.512,10.62l-10.656,0.055C1840.411,1889.141,1835.656,1884.434,1835.627,1878.599z"/>
								</g>
							</g>
						</g>
						<path style="fill:#BDD0FB;" d="M1295.465,1634.272c-0.321-0.397-0.513-0.902-0.516-1.454l-0.538-105.792
							c-0.003-0.618,0.239-1.213,0.675-1.652c0.434-0.44,1.027-0.69,1.645-0.692l288.695-1.468c1.285-0.002,2.332,1.036,2.344,2.322
							c0.008,1.287-1.03,2.336-2.32,2.344l-286.364,1.456l0.527,103.461c0.008,1.287-1.03,2.336-2.32,2.344
							C1296.556,1635.143,1295.895,1634.804,1295.465,1634.272z"/>
						<path style="fill:#BDD0FB;" d="M2116.833,2004.873c-0.321-0.397-0.513-0.902-0.517-1.454c-0.008-1.287,1.031-2.336,2.32-2.344
							l282.778-1.436l-0.528-103.463c-0.008-1.287,1.031-2.336,2.32-2.344c1.284-0.003,2.332,1.036,2.344,2.322l0.539,105.794
							c0.002,0.618-0.239,1.213-0.675,1.652c-0.434,0.44-1.027,0.69-1.645,0.692l-285.109,1.449
							C2117.923,2005.744,2117.262,2005.405,2116.833,2004.873z"/>
					</g>
					<g>
						<path style="fill:#7D97F4;" d="M1550.763,1780.226c0.136,26.829-21.502,48.688-48.33,48.824
							c-26.828,0.136-48.687-21.502-48.824-48.33s21.502-48.688,48.33-48.824C1528.767,1731.76,1550.626,1753.398,1550.763,1780.226
							z"/>
						<path style="fill:#7D97F4;" d="M2281.626,1776.511c0.136,26.828-21.502,48.688-48.33,48.824
							c-26.829,0.136-48.688-21.502-48.824-48.33c-0.136-26.828,21.502-48.688,48.33-48.824
							C2259.631,1728.045,2281.49,1749.683,2281.626,1776.511z"/>
					</g>
				</g>
			</g>
			<g>
				<g>
					
						<linearGradient id="SVGID_00000140705328674606985930000015536215333130095288_" gradientUnits="userSpaceOnUse" x1="2439.0701" y1="-0.7741" x2="2184.8171" y2="437.9373">
						<stop  offset="0" style="stop-color:#FF928E"/>
						<stop  offset="1" style="stop-color:#FE7062"/>
					</linearGradient>
					
						<circle style="fill:url(#SVGID_00000140705328674606985930000015536215333130095288_);" cx="1721.997" cy="1236.531" r="102.112"/>
					
						<linearGradient id="SVGID_00000054986802580687269250000015839522294058790311_" gradientUnits="userSpaceOnUse" x1="2439.0706" y1="-0.7754" x2="2184.8171" y2="437.937">
						<stop  offset="0" style="stop-color:#FF928E"/>
						<stop  offset="1" style="stop-color:#FE7062"/>
					</linearGradient>
					
						<circle style="fill:url(#SVGID_00000054986802580687269250000015839522294058790311_);" cx="1721.997" cy="1236.531" r="98.717"/>
					<path style="opacity:0.5;fill:#FFFFFF;" d="M1640.593,1199.358c-0.58,0-1.17-0.131-1.724-0.412
						c-1.891-0.953-2.649-3.259-1.694-5.151c16.258-32.213,48.759-52.225,84.822-52.225c5.76,0,11.522,0.519,17.127,1.539
						c2.083,0.38,3.465,2.376,3.085,4.46c-0.378,2.083-2.368,3.46-4.46,3.085c-5.153-0.94-10.453-1.416-15.753-1.416
						c-33.151,0-63.029,18.398-77.977,48.012C1643.345,1198.588,1641.995,1199.358,1640.593,1199.358z"/>
					
						<ellipse transform="matrix(0.7071 -0.7071 0.7071 0.7071 -370.889 1581.9579)" style="opacity:0.78;fill:#FFFFFF;" cx="1724.147" cy="1238.682" rx="83.552" ry="83.552"/>
					<g>
						
							<linearGradient id="SVGID_00000154390320808870487940000007864926123545019039_" gradientUnits="userSpaceOnUse" x1="2443.3716" y1="1.7206" x2="2189.1184" y2="440.4327">
							<stop  offset="0" style="stop-color:#FF928E"/>
							<stop  offset="1" style="stop-color:#FE7062"/>
						</linearGradient>
						<path style="fill:url(#SVGID_00000154390320808870487940000007864926123545019039_);" d="M1715.948,1300.795v-9.09
							c-9.476-0.379-18.849-2.616-25.505-5.53c-2.377-1.04-3.589-3.708-2.906-6.212l2.309-8.468
							c0.847-3.106,4.225-4.712,7.195-3.468c6.604,2.769,14.757,4.958,23.549,4.958c9.127,0,15.934-3.094,15.934-9.437
							c0-5.723-5.26-9.126-17.945-12.529c-18.099-4.95-31.094-12.84-31.094-28.774c0-14.387,10.52-25.371,28.774-28.309v-9.091
							c0-2.925,2.371-5.296,5.296-5.296h5.341c2.925,0,5.296,2.371,5.296,5.296v8.162c8.769,0.351,15.151,1.85,20.216,3.63
							c2.595,0.912,4.013,3.708,3.293,6.363l-2.123,7.831c-0.819,3.02-4.046,4.674-6.973,3.567c-4.664-1.763-11.257-3.6-19.828-3.6
							c-10.829,0-13.922,4.486-13.922,8.508c0,4.95,6.497,8.353,20.574,12.686c20.111,6.033,28.464,14.386,28.464,29.392
							c0,13.768-10.21,26.144-30.011,29.238v10.173c0,2.925-2.371,5.296-5.296,5.296h-5.341
							C1718.32,1306.091,1715.948,1303.72,1715.948,1300.795z"/>
					</g>
				</g>
				<g>
					
						<linearGradient id="SVGID_00000064349055098089928590000014665287382198673319_" gradientUnits="userSpaceOnUse" x1="2604.1204" y1="94.8783" x2="2349.8662" y2="533.5917">
						<stop  offset="0" style="stop-color:#FF928E"/>
						<stop  offset="1" style="stop-color:#FE7062"/>
					</linearGradient>
					
						<circle style="fill:url(#SVGID_00000064349055098089928590000014665287382198673319_);" cx="2012.661" cy="1115.438" r="177.76"/>
					
						<linearGradient id="SVGID_00000024688555512312029110000016676684593765011343_" gradientUnits="userSpaceOnUse" x1="2604.1206" y1="94.8784" x2="2349.8682" y2="533.5892">
						<stop  offset="0" style="stop-color:#FF928E"/>
						<stop  offset="1" style="stop-color:#FE7062"/>
					</linearGradient>
					
						<circle style="fill:url(#SVGID_00000024688555512312029110000016676684593765011343_);" cx="2012.661" cy="1115.438" r="171.849"/>
					<path style="opacity:0.5;fill:#FFFFFF;" d="M1870.953,1047.886c-0.58,0-1.17-0.131-1.724-0.412
						c-1.891-0.953-2.649-3.26-1.694-5.151c27.821-55.117,83.431-89.356,145.127-89.356c9.84,0,19.701,0.887,29.305,2.636
						c2.084,0.38,3.466,2.376,3.086,4.459c-0.379,2.082-2.368,3.452-4.46,3.085c-9.153-1.668-18.55-2.512-27.931-2.512
						c-58.787,0-111.772,32.625-138.282,85.143C1873.705,1047.117,1872.355,1047.886,1870.953,1047.886z"/>
					
						<ellipse transform="matrix(0.7071 -0.7071 0.7071 0.7071 -200.7895 1753.6147)" style="opacity:0.78;fill:#FFFFFF;" cx="2016.405" cy="1119.182" rx="145.449" ry="145.449"/>
					<g>
						
							<linearGradient id="SVGID_00000002342565303086255540000001996417463870839681_" gradientUnits="userSpaceOnUse" x1="2611.6099" y1="99.2194" x2="2357.3567" y2="537.9316">
							<stop  offset="0" style="stop-color:#FF928E"/>
							<stop  offset="1" style="stop-color:#FE7062"/>
						</linearGradient>
						<path style="fill:url(#SVGID_00000002342565303086255540000001996417463870839681_);" d="M2002.132,1227.31v-15.824
							c-16.496-0.661-32.812-4.554-44.401-9.627c-4.138-1.811-6.248-6.455-5.059-10.814l4.02-14.74
							c1.475-5.407,7.355-8.204,12.524-6.037c11.495,4.819,25.69,8.632,40.995,8.632c15.889,0,27.738-5.387,27.738-16.428
							c0-9.964-9.156-15.888-31.239-21.812c-31.507-8.617-54.129-22.352-54.129-50.09c0-25.046,18.313-44.166,50.09-49.282v-15.825
							c0-5.092,4.128-9.22,9.22-9.22h9.297c5.092,0,9.22,4.128,9.22,9.22v14.208c15.264,0.611,26.376,3.221,35.193,6.32
							c4.518,1.587,6.986,6.454,5.733,11.076l-3.697,13.632c-1.426,5.257-7.043,8.136-12.139,6.209
							c-8.118-3.07-19.597-6.267-34.517-6.267c-18.851,0-24.236,7.809-24.236,14.812c0,8.617,11.31,14.541,35.816,22.083
							c35.01,10.502,49.551,25.044,49.551,51.167c0,23.968-17.773,45.512-52.244,50.899v17.709c0,5.093-4.128,9.221-9.22,9.221
							h-9.298C2006.26,1236.531,2002.132,1232.403,2002.132,1227.31z"/>
					</g>
				</g>
				<g>
					
						<linearGradient id="SVGID_00000022551700517471243760000006616725435753015218_" gradientUnits="userSpaceOnUse" x1="2868.1384" y1="247.8876" x2="2613.8855" y2="686.5993">
						<stop  offset="0" style="stop-color:#FF928E"/>
						<stop  offset="1" style="stop-color:#FE7062"/>
					</linearGradient>
					
						<circle style="fill:url(#SVGID_00000022551700517471243760000006616725435753015218_);" cx="2135.255" cy="1512.473" r="182.913"/>
					
						<linearGradient id="SVGID_00000009568697572674041090000011318571529430414989_" gradientUnits="userSpaceOnUse" x1="2868.1379" y1="247.8885" x2="2613.8845" y2="686.6007">
						<stop  offset="0" style="stop-color:#FF928E"/>
						<stop  offset="1" style="stop-color:#FE7062"/>
					</linearGradient>
					
						<circle style="fill:url(#SVGID_00000009568697572674041090000011318571529430414989_);" cx="2135.255" cy="1512.473" r="176.83"/>
					<path style="opacity:0.5;fill:#FFFFFF;" d="M1989.439,1442.852c-0.581,0-1.17-0.131-1.724-0.412
						c-1.891-0.953-2.649-3.26-1.694-5.151c28.609-56.675,85.791-91.884,149.234-91.884c10.125,0,20.262,0.912,30.136,2.709
						c2.084,0.38,3.464,2.376,3.085,4.46c-0.378,2.082-2.365,3.456-4.46,3.085c-9.421-1.715-19.098-2.586-28.762-2.586
						c-60.532,0-115.092,33.593-142.39,87.671C1992.191,1442.082,1990.841,1442.852,1989.439,1442.852z"/>
					
						<ellipse transform="matrix(0.7071 -0.7071 0.7071 0.7071 -445.6743 1956.6992)" style="opacity:0.78;fill:#FFFFFF;" cx="2139.108" cy="1516.326" rx="149.665" ry="149.665"/>
					<g>
						
							<linearGradient id="SVGID_00000110461159834973429280000006523283268685744783_" gradientUnits="userSpaceOnUse" x1="2875.845" y1="252.3544" x2="2621.5916" y2="691.0669">
							<stop  offset="0" style="stop-color:#FF928E"/>
							<stop  offset="1" style="stop-color:#FE7062"/>
						</linearGradient>
						<path style="fill:url(#SVGID_00000110461159834973429280000006523283268685744783_);" d="M2124.421,1627.589v-16.283
							c-16.974-0.68-33.764-4.686-45.688-9.906c-4.258-1.864-6.429-6.643-5.206-11.127l4.136-15.167
							c1.517-5.564,7.568-8.442,12.887-6.212c11.829,4.959,26.435,8.882,42.184,8.882c16.349,0,28.542-5.543,28.542-16.905
							c0-10.252-9.421-16.348-32.144-22.444c-32.421-8.867-55.699-23-55.699-51.542c0-25.772,18.844-45.446,51.542-50.71v-16.285
							c0-5.24,4.248-9.487,9.488-9.487h9.567c5.24,0,9.487,4.248,9.487,9.487v14.621c15.707,0.628,27.14,3.315,36.214,6.503
							c4.648,1.633,7.189,6.641,5.899,11.397l-3.804,14.026c-1.467,5.409-7.248,8.372-12.49,6.39
							c-8.354-3.159-20.165-6.449-35.517-6.449c-19.398,0-24.939,8.036-24.939,15.241c0,8.867,11.638,14.963,36.854,22.723
							c36.024,10.807,50.987,25.77,50.987,52.65c0,24.662-18.288,46.831-53.758,52.374v18.223c0,5.24-4.248,9.487-9.487,9.487
							h-9.568C2128.669,1637.077,2124.421,1632.829,2124.421,1627.589z"/>
					</g>
				</g>
				<g>
					
						<linearGradient id="SVGID_00000054227571949815914050000018069192804389080477_" gradientUnits="userSpaceOnUse" x1="2935.697" y1="287.0435" x2="2681.4441" y2="725.7553">
						<stop  offset="0" style="stop-color:#FF928E"/>
						<stop  offset="1" style="stop-color:#FE7062"/>
					</linearGradient>
					
						<circle style="fill:url(#SVGID_00000054227571949815914050000018069192804389080477_);" cx="2369.907" cy="1263.31" r="134.018"/>
					
						<linearGradient id="SVGID_00000092424658080869377970000015133663899894997904_" gradientUnits="userSpaceOnUse" x1="2935.6978" y1="287.0427" x2="2681.4443" y2="725.7549">
						<stop  offset="0" style="stop-color:#FF928E"/>
						<stop  offset="1" style="stop-color:#FE7062"/>
					</linearGradient>
					
						<circle style="fill:url(#SVGID_00000092424658080869377970000015133663899894997904_);" cx="2369.907" cy="1263.311" r="129.562"/>
					<path style="opacity:0.5;fill:#FFFFFF;" d="M2263.069,1213.324c-0.581,0-1.17-0.131-1.724-0.412
						c-1.891-0.953-2.649-3.26-1.694-5.151c21.135-41.873,63.383-67.886,110.257-67.886c7.485,0,14.976,0.674,22.266,2.003
						c2.082,0.38,3.464,2.378,3.083,4.46c-0.382,2.085-2.361,3.465-4.461,3.085c-6.835-1.247-13.864-1.88-20.888-1.88
						c-43.963,0-83.588,24.399-103.412,63.673C2265.821,1212.555,2264.471,1213.324,2263.069,1213.324z"/>
					
						<ellipse transform="matrix(0.9732 -0.2298 0.2298 0.9732 -227.4252 579.013)" style="opacity:0.78;fill:#FFFFFF;" cx="2372.73" cy="1266.134" rx="109.658" ry="109.659"/>
					<g>
						
							<linearGradient id="SVGID_00000026842863914286603850000007604744339313247389_" gradientUnits="userSpaceOnUse" x1="2941.3447" y1="290.3149" x2="2687.0913" y2="729.0272">
							<stop  offset="0" style="stop-color:#FF928E"/>
							<stop  offset="1" style="stop-color:#FE7062"/>
						</linearGradient>
						<path style="fill:url(#SVGID_00000026842863914286603850000007604744339313247389_);" d="M2361.969,1347.655v-11.93
							c-12.437-0.498-24.739-3.433-33.476-7.258c-3.12-1.366-4.71-4.867-3.814-8.153l3.031-11.113
							c1.112-4.077,5.546-6.185,9.442-4.552c8.667,3.634,19.369,6.508,30.908,6.508c11.979,0,20.912-4.062,20.912-12.386
							c0-7.512-6.903-11.978-23.552-16.444c-23.754-6.497-40.81-16.852-40.81-37.765c0-18.883,13.806-33.298,37.765-37.155v-11.932
							c0-3.839,3.112-6.951,6.951-6.951h7.009c3.84,0,6.952,3.112,6.952,6.951v10.712c11.509,0.461,19.885,2.429,26.533,4.765
							c3.406,1.197,5.267,4.866,4.323,8.35l-2.787,10.277c-1.075,3.963-5.31,6.134-9.151,4.682
							c-6.121-2.315-14.775-4.725-26.024-4.725c-14.212,0-18.272,5.887-18.272,11.167c0,6.497,8.527,10.964,27.003,16.649
							c26.395,7.919,37.358,18.882,37.358,38.576c0,18.07-13.4,34.313-39.388,38.374v13.351c0,3.839-3.112,6.952-6.951,6.952h-7.01
							C2365.081,1354.606,2361.969,1351.494,2361.969,1347.655z"/>
					</g>
				</g>
			</g>
		</g>
	</g>
</g>
</svg>
