<svg xmlns="http://www.w3.org/2000/svg" viewBox="0 0 520 480"><defs><style>.cls-1{isolation:isolate;}.cls-2{fill:#c46e0d;}.cls-3{fill:#ffe6e1;}.cls-4{fill:#f33e01;}.cls-5{fill:#cc8b6e;}.cls-6{fill:#fce6d9;}.cls-7{fill:#e9b79c;}.cls-8{fill:#c58063;}.cls-9{fill:#242236;}.cls-10{fill:#201714;}.cls-11{fill:#4d2f20;}.cls-12{fill:#faffff;}.cls-13{fill:#dea296;}.cls-14{fill:#b22a06;}.cls-15{fill:#ffb21b;}.cls-16{fill:#ffc91d;}.cls-17{fill:#ffe984;}.cls-18{fill:#8dc73e;}.cls-19{fill:#7eaf2f;}.cls-20{fill:#d6e6f2;}.cls-21{fill:#ffa000;}.cls-22{fill:#feda00;}.cls-23{fill:#fac22e;}.cls-24{fill:#ff6c52;}.cls-25{fill:#e9e4fc;}.cls-26{fill:#53424d;}.cls-27{fill:#fc5124;}.cls-28{fill:#ffd5c2;}.cls-29{fill:#ef5945;}.cls-30{fill:#e8a32b;}.cls-31{fill:#b3d0ff;}.cls-32{fill:#94b8ed;}.cls-33{fill:#ffbe9e;}.cls-34{fill:#ff9c81;}.cls-35{fill:#7c4930;}.cls-36{fill:#891a04;}.cls-37{fill:#54040a;}.cls-38{fill:#6d0713;}.cls-39{fill:#426ece;}.cls-40{fill:#e08b03;}.cls-41{fill:#feb801;}.cls-42{fill:#ebf3ff;}.cls-43{fill:#5a7fe5;}.cls-44{fill:#fff;}.cls-45{fill:#282738;}.cls-46{fill:#aacef2;}.cls-47{mix-blend-mode:overlay;opacity:0.2;}.cls-48{fill:#f4a517;}.cls-49{fill:#f7f7fc;}.cls-50{fill:#8b482a;}.cls-51{fill:#612c13;}.cls-52{fill:#1e100c;}.cls-53{fill:#e3f5fb;}.cls-54{fill:#fe6a3c;}.cls-55{fill:#fbb433;}.cls-56{fill:#7378d6;}.cls-57{fill:#e7f4fa;}.cls-58{fill:#fbb99d;}.cls-59{fill:#ca8623;}.cls-60{fill:#fec44f;}</style></defs><g class="cls-1"><g id="Layer_1" data-name="Layer 1"><polygon class="cls-2" points="117.39 364.55 116.01 364.64 115.79 361.12 117.18 361.02 117.39 364.55"/><polygon class="cls-2" points="117.71 369.8 116.33 369.88 116.11 366.36 117.5 366.27 117.71 369.8"/><rect class="cls-2" x="116.54" y="371.56" width="1.39" height="3.53" transform="translate(-22.57 7.85) rotate(-3.5)"/><polygon class="cls-2" points="118.34 380.29 116.96 380.37 116.75 376.85 118.13 376.77 118.34 380.29"/><polygon class="cls-2" points="118.66 385.53 117.28 385.61 117.07 382.09 118.45 382.01 118.66 385.53"/><polygon class="cls-2" points="118.98 390.78 117.6 390.86 117.39 387.34 118.77 387.26 118.98 390.78"/><polygon class="cls-2" points="119.3 396.03 117.92 396.1 117.7 392.58 119.09 392.51 119.3 396.03"/><polygon class="cls-2" points="119.62 401.28 118.23 401.35 118.02 397.83 119.41 397.75 119.62 401.28"/><path class="cls-2" d="M120.06,406.41l-1.37.26a19.71,19.71,0,0,1-.28-2.42l-.07-1.18,1.38-.07.07,1.16A18.68,18.68,0,0,0,120.06,406.41Z"/><path class="cls-2" d="M121.71,411.17l-1.24.63-.25-.51a11.8,11.8,0,0,1-.51-1.15,10.4,10.4,0,0,1-.43-1.18l-.18-.55,1.33-.38.17.5a10.23,10.23,0,0,0,.4,1.1c.16.39.32.78.47,1.06Z"/><path class="cls-2" d="M124.62,415.28l-1,1-.38-.43a11.53,11.53,0,0,1-.8-1,9.77,9.77,0,0,1-.74-1l-.32-.47,1.17-.75.29.44c.18.27.43.61.69.94a11.48,11.48,0,0,0,.75.9Z"/><path class="cls-2" d="M128.53,418.47l-.72,1.18-.47-.31a12.54,12.54,0,0,1-1-.72,11.58,11.58,0,0,1-1-.78l-.43-.37.92-1,.41.35c.23.21.57.47.91.72a9.55,9.55,0,0,0,1,.67Z"/><path class="cls-2" d="M133.16,420.43l-.34,1.34s-.89-.23-1.75-.55a15.23,15.23,0,0,1-1.68-.72l.6-1.24a15.29,15.29,0,0,0,1.56.66C132.34,420.21,133.16,420.43,133.16,420.43Z"/><path class="cls-2" d="M138.14,420.85l.11,1.38a4.87,4.87,0,0,1-.57,0c-.34,0-.81.05-1.27,0a17.53,17.53,0,0,1-1.83-.17l.2-1.37a14.62,14.62,0,0,0,1.68.15c.42,0,.84,0,1.15,0A4.14,4.14,0,0,0,138.14,420.85Z"/><path class="cls-2" d="M143,419.61l.56,1.27-.54.21a10.38,10.38,0,0,1-1.18.43A14.64,14.64,0,0,1,140,422l-.26-1.35a15.59,15.59,0,0,0,1.63-.42c.41-.1.79-.29,1.09-.39Z"/><path class="cls-2" d="M147.24,416.92l.89,1.07-.44.36c-.26.22-.64.48-1,.75s-.76.5-1.05.68l-.49.29-.68-1.2.45-.28a9.74,9.74,0,0,0,1-.63c.34-.25.7-.49.94-.69Z"/><path class="cls-2" d="M150.81,413.25l1.06.9-1.17,1.34c-.3.34-.6.68-.85.91l-.4.4-1-1,.38-.38c.24-.22.52-.54.81-.86Z"/><path class="cls-2" d="M154.47,409.35l.93,1s-.63.56-1.22,1.21-1.19,1.27-1.19,1.27l-1-.93,1.22-1.3C153.78,410,154.47,409.35,154.47,409.35Z"/><path class="cls-2" d="M158.64,405.84l.62,1.27-1.35,1-1.3,1.1-.83-1.11,1.4-1.19Z"/><path class="cls-2" d="M163.31,403.07l.28,1.43-.48.23a11.16,11.16,0,0,0-1,.56c-.36.21-.74.41-1,.58l-.44.3-.51-1.33.48-.32c.29-.18.69-.39,1.09-.62a12.47,12.47,0,0,1,1.1-.59Z"/><path class="cls-2" d="M168.46,401.43l-.08,1.5-.52.1a8.39,8.39,0,0,0-1.13.28,12.73,12.73,0,0,0-1.61.54l-.17-1.47a15.15,15.15,0,0,1,1.74-.56,9.06,9.06,0,0,1,1.21-.29Z"/><path class="cls-2" d="M173.85,401.52l-.44,1.46a2.77,2.77,0,0,0-.52-.11l-1.16-.14-1.17,0a3.5,3.5,0,0,0-.53,0l.2-1.5a3.85,3.85,0,0,1,.57,0l1.25,0,1.24.16A2.11,2.11,0,0,1,173.85,401.52Z"/><path class="cls-2" d="M178.74,403.74l-.76,1.32s-.69-.5-1.43-.92c-.38-.18-.75-.39-1-.51l-.5-.19.54-1.42.54.19c.31.14.71.35,1.12.56C178,403.21,178.74,403.74,178.74,403.74Z"/><path class="cls-2" d="M182.38,407.72l-1,1.09a11.8,11.8,0,0,0-1-1.39,7.1,7.1,0,0,0-.76-.88l-.37-.38.86-1.25.39.41a7.21,7.21,0,0,1,.83.93A13.38,13.38,0,0,1,182.38,407.72Z"/><path class="cls-2" d="M184.71,412.61l-1.22.77a25.22,25.22,0,0,0-1.31-3.13l1.1-1a17.08,17.08,0,0,1,.78,1.65c.18.42.36.83.46,1.16Z"/><path class="cls-2" d="M186,417.89l-1.35.41s0-.21-.08-.53l-.22-1.14c-.07-.42-.18-.83-.26-1.14S184,415,184,415l1.27-.65.15.55a11.23,11.23,0,0,1,.28,1.22c.1.45.18.9.25,1.24S186,417.89,186,417.89Z"/><path class="cls-2" d="M186.49,423.3l-1.38.06s0-.88-.08-1.72c0-.42-.07-.85-.09-1.16a4.69,4.69,0,0,0-.06-.53l1.36-.28a3.82,3.82,0,0,1,.07.57c0,.34.06.79.09,1.25C186.49,422.41,186.49,423.3,186.49,423.3Z"/><path class="cls-2" d="M186.4,428.62l-1.38-.08s.08-.87.08-1.74l0-1.75h1.39l0,1.78C186.49,427.74,186.4,428.62,186.4,428.62Z"/><polygon class="cls-2" points="112.44 290.61 111.05 290.71 110.83 287.19 112.21 287.09 112.44 290.61"/><polygon class="cls-2" points="112.77 295.86 111.39 295.95 111.17 292.43 112.55 292.34 112.77 295.86"/><rect class="cls-2" x="111.61" y="297.62" width="1.39" height="3.53" transform="translate(-19.04 7.85) rotate(-3.69)"/><polygon class="cls-2" points="113.45 306.35 112.07 306.44 111.84 302.92 113.22 302.83 113.45 306.35"/><polygon class="cls-2" points="113.79 311.6 112.4 311.68 112.18 308.16 113.56 308.07 113.79 311.6"/><polygon class="cls-2" points="114.13 316.84 112.74 316.93 112.52 313.4 113.9 313.32 114.13 316.84"/><polygon class="cls-2" points="114.46 322.09 113.08 322.17 112.85 318.65 114.23 318.57 114.46 322.09"/><polygon class="cls-2" points="114.8 327.33 113.42 327.41 113.19 323.89 114.57 323.81 114.8 327.33"/><path class="cls-2" d="M115.26,332.47l-1.37.26a21.89,21.89,0,0,1-.29-2.42l-.07-1.18,1.38-.07.07,1.16A18.94,18.94,0,0,0,115.26,332.47Z"/><path class="cls-2" d="M116.92,337.22l-1.23.63-.25-.51c-.17-.3-.34-.72-.52-1.14s-.33-.86-.43-1.18l-.18-.55,1.33-.39s.06.2.17.5.23.71.4,1.1a9.91,9.91,0,0,0,.48,1.06Z"/><path class="cls-2" d="M119.86,341.32l-1,.95-.38-.43a11.19,11.19,0,0,1-.81-1,9.77,9.77,0,0,1-.74-1l-.33-.47,1.17-.75.3.44a10,10,0,0,0,.69.94,11.16,11.16,0,0,0,.75.89Z"/><path class="cls-2" d="M123.78,344.49l-.72,1.19-.48-.31c-.29-.19-.67-.43-1-.71s-.73-.55-1-.78l-.43-.37.92-1,.4.35c.24.21.58.47.92.72s.69.49,1,.66Z"/><path class="cls-2" d="M128.41,346.43l-.33,1.35s-.89-.23-1.75-.54a17.32,17.32,0,0,1-1.69-.72l.6-1.24a14,14,0,0,0,1.56.65C127.59,346.22,128.41,346.43,128.41,346.43Z"/><path class="cls-2" d="M133.39,346.84l.12,1.38a4.87,4.87,0,0,1-.57,0c-.35,0-.81.05-1.27,0a16.07,16.07,0,0,1-1.83-.16l.19-1.37a14.92,14.92,0,0,0,1.68.15c.42,0,.84,0,1.16,0A4.06,4.06,0,0,0,133.39,346.84Z"/><path class="cls-2" d="M138.23,345.59l.56,1.26-.53.21c-.33.12-.74.32-1.19.44a15.38,15.38,0,0,1-1.78.46L135,346.6a15.59,15.59,0,0,0,1.63-.42c.41-.11.79-.29,1.09-.4Z"/><path class="cls-2" d="M142.48,342.88l.89,1.06-.43.37c-.27.22-.65.47-1,.74a11.62,11.62,0,0,1-1.05.69l-.49.3-.69-1.21.46-.28a8.68,8.68,0,0,0,1-.63c.34-.26.7-.49.94-.7Z"/><path class="cls-2" d="M146,339.19l1.06.89s-.58.68-1.17,1.35c-.3.34-.59.69-.84.92l-.41.39-1-1,.39-.38c.23-.22.51-.54.8-.87Z"/><path class="cls-2" d="M149.68,335.28l.93,1s-.62.56-1.21,1.22l-1.19,1.27-1-.92,1.22-1.31C149,335.9,149.68,335.28,149.68,335.28Z"/><path class="cls-2" d="M153.84,331.75l.62,1.27-1.35,1-1.29,1.11-.83-1.11,1.39-1.19Z"/><path class="cls-2" d="M158.5,329l.28,1.43-.48.23c-.28.13-.65.34-1,.56s-.74.41-1,.59l-.44.29-.52-1.33.48-.31c.29-.19.69-.4,1.09-.63a12.47,12.47,0,0,1,1.1-.59Z"/><path class="cls-2" d="M163.64,327.31l-.07,1.5-.52.1a7.72,7.72,0,0,0-1.13.28,13.77,13.77,0,0,0-1.61.55l-.17-1.47a14.61,14.61,0,0,1,1.73-.56,7.86,7.86,0,0,1,1.21-.3Z"/><path class="cls-2" d="M169,327.37l-.43,1.47a2.77,2.77,0,0,0-.52-.11l-1.16-.14h-1.17a3.39,3.39,0,0,0-.53,0l.19-1.5a2.73,2.73,0,0,1,.57,0l1.25,0,1.24.16A3.31,3.31,0,0,1,169,327.37Z"/><path class="cls-2" d="M173.93,329.58l-.75,1.32s-.7-.49-1.43-.91c-.39-.19-.76-.39-1.06-.51l-.49-.18.54-1.43.53.19c.32.13.71.35,1.12.55A17.56,17.56,0,0,1,173.93,329.58Z"/><path class="cls-2" d="M177.58,333.55l-1,1.09a11.25,11.25,0,0,0-1-1.38,7.2,7.2,0,0,0-.77-.88l-.37-.38.85-1.26.4.41a8,8,0,0,1,.83.93A13.38,13.38,0,0,1,177.58,333.55Z"/><path class="cls-2" d="M179.93,338.42l-1.22.78a24.43,24.43,0,0,0-1.32-3.13l1.1-1a14.73,14.73,0,0,1,.78,1.65,10,10,0,0,1,.48,1.16Z"/><path class="cls-2" d="M181.25,343.7l-1.34.41a4.6,4.6,0,0,0-.09-.52l-.22-1.15c-.08-.42-.18-.83-.27-1.13l-.13-.52,1.26-.66.15.55a11.06,11.06,0,0,1,.29,1.22l.25,1.24C181.22,343.47,181.25,343.7,181.25,343.7Z"/><path class="cls-2" d="M181.75,349.11l-1.38.06s0-.87-.09-1.71c0-.43-.07-.85-.09-1.17a4.69,4.69,0,0,0-.06-.53l1.36-.28a3.82,3.82,0,0,1,.07.57c0,.34.06.79.1,1.25C181.75,348.22,181.75,349.11,181.75,349.11Z"/><path class="cls-2" d="M181.68,354.43l-1.38-.08s.08-.87.08-1.74,0-1.74,0-1.74h1.39l0,1.78C181.76,353.55,181.68,354.43,181.68,354.43Z"/><path class="cls-2" d="M457.71,263.26l-1.35.31s-.2-.89-.45-1.75-.55-1.7-.55-1.7l1.3-.49s.33.9.58,1.81S457.71,263.26,457.71,263.26Z"/><path class="cls-2" d="M458.56,268.79l-1.38.11s-.08-.9-.19-1.8-.28-1.79-.28-1.79l1.37-.25s.16.93.28,1.86S458.56,268.79,458.56,268.79Z"/><path class="cls-2" d="M458.62,274.38l-1.38-.08s0-.23,0-.57,0-.79,0-1.24,0-.91,0-1.25,0-.57,0-.57l1.39-.05,0,.59v1.29c0,.47,0,.94,0,1.3S458.62,274.38,458.62,274.38Z"/><path class="cls-2" d="M457.83,279.93l-1.35-.3s.21-.88.35-1.78.25-1.79.25-1.79l1.37.16s-.08.93-.26,1.86S457.83,279.93,457.83,279.93Z"/><path class="cls-2" d="M456.17,285.28l-1.28-.52.2-.52c.13-.32.29-.74.43-1.17l.38-1.18.15-.55,1.33.38-.15.56c-.11.34-.26.79-.4,1.24s-.31.88-.45,1.21S456.17,285.28,456.17,285.28Z"/><path class="cls-2" d="M453.64,290.29l-1.18-.73.3-.48c.18-.29.4-.68.6-1.08l.58-1.1.24-.52,1.25.59s-.1.21-.24.54l-.61,1.14a12.12,12.12,0,0,1-.63,1.13Z"/><path class="cls-2" d="M450.36,294.82l-1.06-.9a5.05,5.05,0,0,0,.37-.43l.77-1c.28-.35.55-.72.74-1l.32-.46,1.14.78-.34.48a11.59,11.59,0,0,1-.76,1l-.81,1A5.78,5.78,0,0,1,450.36,294.82Z"/><path class="cls-2" d="M446.43,298.8l-.92-1,.42-.38a9.71,9.71,0,0,0,.91-.85l.89-.88c.24-.24.39-.41.39-.41l1,.95a5,5,0,0,1-.41.42l-.91.91c-.33.34-.67.66-.94.89Z"/><path class="cls-2" d="M442,302.22l-.76-1.16s.75-.49,1.48-1l1.43-1.13L445,300l-1.47,1.16C442.8,301.7,442,302.22,442,302.22Z"/><path class="cls-2" d="M437,304.84l-.52-1.29,1.64-.74a8.58,8.58,0,0,0,1.1-.56l.49-.28.69,1.21-.52.29a9.55,9.55,0,0,1-1.16.59Z"/><path class="cls-2" d="M431.67,306.47l-.31-1.35s.23,0,.55-.13l1.2-.33c.44-.12.88-.22,1.2-.33l.53-.19.44,1.31-.55.2c-.34.11-.79.22-1.25.35l-1.24.33A5.71,5.71,0,0,1,431.67,306.47Z"/><path class="cls-2" d="M426.18,307.39,426,306l1.81-.26c.9-.1,1.79-.3,1.79-.3l.26,1.37s-.92.19-1.85.3Z"/><path class="cls-2" d="M420.66,307.86l-.08-1.38,1.83-.11,1.82-.17.13,1.38-1.85.17Z"/><polygon class="cls-2" points="415.14 308.07 415.11 306.69 418.78 306.58 418.84 307.96 415.14 308.07"/><polygon class="cls-2" points="409.63 308.11 409.63 306.73 413.31 306.71 413.33 308.1 409.63 308.11"/><polygon class="cls-2" points="404.12 308.04 404.15 306.65 407.83 306.7 407.82 308.09 404.12 308.04"/><polygon class="cls-2" points="398.62 307.9 398.66 306.51 402.35 306.61 402.31 308 398.62 307.9"/><polygon class="cls-2" points="393.12 307.72 393.17 306.33 396.86 306.46 396.81 307.84 393.12 307.72"/><rect class="cls-2" x="388.81" y="305.04" width="1.39" height="3.69" transform="translate(67.2 683.74) rotate(-87.7)"/><rect class="cls-2" x="383.31" y="304.83" width="1.39" height="3.69" transform="translate(61.38 677.38) rotate(-87.58)"/><polygon class="cls-2" points="376.65 307.13 376.69 305.74 380.39 305.83 380.33 307.21 376.65 307.13"/><polygon class="cls-2" points="371.17 307 371.19 305.62 374.88 305.7 374.85 307.08 371.17 307"/><path class="cls-2" d="M365.69,306.92v-1.38s.93-.05,1.85,0l1.85,0V307l-1.84,0C366.61,306.88,365.69,306.92,365.69,306.92Z"/><polygon class="cls-2" points="360.22 307.09 360.16 305.71 363.87 305.59 363.89 306.98 360.22 307.09"/><path class="cls-2" d="M354.77,307.4l-.12-1.38,1.85-.18c.46-.06.92,0,1.27-.06l.58,0,.07,1.38-.57,0c-.34,0-.8,0-1.26.06Z"/><path class="cls-2" d="M349.35,308l-.2-1.37.57-.1,1.27-.12,1.85-.19.15,1.37-1.82.19-1.26.13Z"/><path class="cls-2" d="M344,308.92l-.27-1.36s.23-.06.57-.11l1.26-.21,1.83-.31.22,1.36-1.81.31-1.24.21A5.25,5.25,0,0,0,344,308.92Z"/><path class="cls-2" d="M338.79,310.38l-.47-1.31.55-.2c.33-.12.77-.28,1.23-.4l1.8-.51.34,1.35-1.74.49c-.44.11-.86.27-1.18.38Z"/><path class="cls-2" d="M333.89,312.59l-.67-1.21,1.66-.88,1.72-.76.54,1.28-1.65.73Z"/><path class="cls-2" d="M329.46,315.61l-.88-1.07,1.49-1.16a10.83,10.83,0,0,1,1.07-.73l.5-.32.74,1.17-.47.31a11.57,11.57,0,0,0-1,.69Z"/><path class="cls-2" d="M325.68,319.39l-1.07-.89,1.24-1.42a11.08,11.08,0,0,1,.92-.91l.43-.41.95,1-.41.38a10.16,10.16,0,0,0-.88.87Z"/><path class="cls-2" d="M322.68,323.82l-1.22-.67.93-1.64,1.09-1.54,1.12.81-1,1.47Z"/><path class="cls-2" d="M320.49,328.72l-1.31-.46a12.6,12.6,0,0,1,.67-1.76l.76-1.72,1.24.6S320.39,328.68,320.49,328.72Z"/><path class="cls-2" d="M319.1,333.92l-1.36-.26s.78-3.67.88-3.65l1.33.39C319.85,330.37,319.1,333.92,319.1,333.92Z"/><path class="cls-2" d="M318.4,339.28l-1.39-.1s0-.23,0-.58.1-.81.16-1.28c.12-.93.23-1.86.23-1.86l1.37.21-.22,1.8c-.06.45-.11.9-.16,1.24S318.4,339.28,318.4,339.28Z"/><path class="cls-2" d="M318.29,344.7l-1.38,0s-.05-.93,0-1.87.07-1.86.07-1.86l1.39.05-.08,1.82C318.25,343.79,318.29,344.7,318.29,344.7Z"/><path class="cls-2" d="M318.82,350.06l-1.36.24-.1-.58c-.05-.35-.16-.81-.19-1.28l-.17-1.86,1.38-.11.17,1.81c0,.45.13.89.18,1.22Z"/><path class="cls-2" d="M320.2,355.23l-1.29.49s-.31-.89-.61-1.79c-.16-.44-.24-.91-.34-1.25s-.14-.57-.14-.57l1.35-.32s.05.22.14.54.16.78.31,1.2Z"/><path class="cls-2" d="M322.7,359.9l-1.13.8-.34-.48a9.44,9.44,0,0,1-.69-1.11c-.23-.42-.47-.83-.64-1.14a4.72,4.72,0,0,1-.25-.54l1.25-.6a5,5,0,0,0,.24.51l.59,1.07a7.43,7.43,0,0,0,.65,1Z"/><path class="cls-2" d="M326.33,363.74l-.88,1.08a13.23,13.23,0,0,1-1.42-1.26,13.47,13.47,0,0,1-1.31-1.39l1-.9A20.6,20.6,0,0,0,326.33,363.74Z"/><path class="cls-2" d="M330.83,366.57l-.6,1.25-.53-.26-1.14-.63a9.73,9.73,0,0,1-1.12-.67l-.49-.33.78-1.14.46.3a8.79,8.79,0,0,0,1.05.64l1.08.6Z"/><path class="cls-2" d="M335.85,368.47l-.38,1.33-1.79-.57-1.76-.66.52-1.29,1.69.64Z"/><path class="cls-2" d="M341.14,369.66,340.9,371s-.92-.13-1.84-.35l-1.25-.26-.57-.14.33-1.35s.22.07.55.14l1.23.26C340.23,369.52,341.14,369.66,341.14,369.66Z"/><path class="cls-2" d="M346.53,370.37l-.14,1.38-1.84-.2-1.85-.24.2-1.37,1.81.24Z"/><path class="cls-2" d="M352,370.77l-.07,1.38-1.85-.11c-.93-.05-1.86-.13-1.86-.13l.12-1.38s.91.08,1.82.13Z"/><polygon class="cls-2" points="357.45 370.96 357.42 372.34 353.72 372.23 353.77 370.85 357.45 370.96"/><polygon class="cls-2" points="362.94 371.04 362.92 372.43 359.23 372.38 359.25 370.99 362.94 371.04"/><rect class="cls-2" x="365.89" y="369.93" width="1.39" height="3.69" transform="translate(-9.61 733.81) rotate(-89.3)"/><polygon class="cls-2" points="373.94 371.19 373.9 372.58 370.22 372.5 370.24 371.12 373.94 371.19"/><path class="cls-2" d="M379.52,371.79l-.28,1.35s-.88-.19-1.77-.32l-1.79-.15.08-1.38,1.89.15C378.59,371.58,379.52,371.79,379.52,371.79Z"/><path class="cls-2" d="M384.88,373.52l-.57,1.26-.52-.22c-.31-.13-.71-.34-1.13-.48l-1.72-.53.38-1.34,1.81.57c.45.15.88.37,1.21.5Z"/><path class="cls-2" d="M389.72,376.42l-.85,1.1-1.44-1.06-1.55-.9.66-1.21,1.65.95Z"/><path class="cls-2" d="M393.77,380.36l-1.08.87-1.18-1.34a9.88,9.88,0,0,0-.88-.86l-.42-.38.93-1,.44.4a9.92,9.92,0,0,1,.93.92Z"/><path class="cls-2" d="M396.82,385.1l-1.24.62a5,5,0,0,0-.26-.5l-.62-1.07a8.49,8.49,0,0,0-.64-1l-.33-.46,1.14-.79.35.48a10.25,10.25,0,0,1,.68,1.12l.64,1.13A3.71,3.71,0,0,1,396.82,385.1Z"/><path class="cls-2" d="M398.73,390.41l-1.34.33-.12-.55-.38-1.18c-.14-.42-.28-.85-.38-1.17l-.22-.51,1.28-.53s.09.22.24.55.25.79.4,1.24.29.9.4,1.24S398.73,390.41,398.73,390.41Z"/><path class="cls-2" d="M399.46,396l-1.39,0v-.57a10.09,10.09,0,0,0-.1-1.23c-.05-.44-.1-.89-.14-1.22s-.07-.56-.07-.56l1.37-.23s0,.24.07.59.1.82.15,1.3a11,11,0,0,1,.1,1.29C399.45,395.76,399.46,396,399.46,396Z"/><path class="cls-2" d="M399,401.61l-1.36-.27.11-.55a7.47,7.47,0,0,0,.19-1.22c.09-.89.17-1.79.17-1.79l1.39.07-.18,1.89a9.52,9.52,0,0,1-.2,1.29C399,401.38,399,401.61,399,401.61Z"/><path class="cls-2" d="M397.25,407l-1.27-.56.22-.51a8.85,8.85,0,0,0,.46-1.15l.54-1.71,1.33.37s-.28.9-.57,1.81a8.47,8.47,0,0,1-.48,1.21Z"/><path class="cls-2" d="M394.47,411.87l-1.13-.8.32-.46a8,8,0,0,0,.68-1l.89-1.57,1.23.65-.94,1.64a9,9,0,0,1-.71,1.09Z"/><path class="cls-2" d="M390.81,416.13l-1-1c.08.08,2.45-2.64,2.45-2.64l1.08.87S390.89,416.21,390.81,416.13Z"/><path class="cls-2" d="M386.48,419.69l-.79-1.14,1.45-1.08c.35-.28.72-.54,1-.76l.42-.38.91,1.05-.44.39c-.27.23-.65.5-1,.79Z"/><path class="cls-2" d="M381.67,422.53,381,421.3l.51-.25a11.2,11.2,0,0,0,1.1-.59l1.55-.95.73,1.18-1.59,1c-.4.26-.84.43-1.14.6Z"/><path class="cls-2" d="M376.57,424.78l-.48-1.3,1.69-.67,1.16-.47.51-.24.58,1.25-.53.26-1.19.48Z"/><path class="cls-2" d="M371.28,426.48l-.36-1.34a4.45,4.45,0,0,0,.55-.15l1.19-.37,1.75-.54.44,1.31-1.79.55-1.22.38C371.51,426.43,371.28,426.48,371.28,426.48Z"/><path class="cls-2" d="M365.85,427.66l-.24-1.36.56-.09c.34,0,.79-.14,1.23-.25l1.78-.42.32,1.35-1.82.43c-.45.1-.91.2-1.25.25Z"/><path class="cls-2" d="M360.37,428.45l-.16-1.38s.92-.07,1.82-.19l1.81-.29.21,1.36-1.83.3C361.29,428.38,360.37,428.45,360.37,428.45Z"/><path class="cls-2" d="M354.85,428.89l-.07-1.39,1.83-.08,1.82-.18.12,1.39-1.85.18Z"/><path class="cls-2" d="M349.32,429v-1.38s.92,0,1.84,0l1.83-.07,0,1.39-1.86.07C350.24,429.06,349.32,429,349.32,429Z"/><polygon class="cls-2" points="343.82 429.04 343.82 427.66 347.51 427.66 347.52 429.04 343.82 429.04"/><rect class="cls-2" x="338.33" y="427.66" width="3.69" height="1.39"/><polygon class="cls-2" points="394.32 179.43 394.33 178.04 397.86 178.04 397.85 179.43 394.32 179.43"/><polygon class="cls-2" points="389.07 179.43 389.07 178.04 392.6 178.04 392.6 179.43 389.07 179.43"/><rect class="cls-2" x="383.82" y="178.04" width="3.53" height="1.39"/><rect class="cls-2" x="378.56" y="178.04" width="3.53" height="1.39" transform="matrix(1, 0, 0, 1, -0.36, 0.77)"/><polygon class="cls-2" points="373.31 179.43 373.3 178.04 376.83 178.04 376.84 179.43 373.31 179.43"/><polygon class="cls-2" points="368.05 179.43 368.05 178.04 371.57 178.04 371.58 179.43 368.05 179.43"/><polygon class="cls-2" points="362.8 179.43 362.79 178.04 366.32 178.04 366.33 179.43 362.8 179.43"/><polygon class="cls-2" points="357.55 179.43 357.53 178.04 361.06 178.04 361.07 179.43 357.55 179.43"/><path class="cls-2" d="M352.2,179.29l.18-1.38a17.13,17.13,0,0,0,2.26.13h1.17v1.39h-1.18A22.18,22.18,0,0,1,352.2,179.29Z"/><path class="cls-2" d="M347,177.82l.56-1.27.49.21a11.63,11.63,0,0,0,1.09.41,10.85,10.85,0,0,0,1.12.33l.52.14-.31,1.35-.55-.15a10.17,10.17,0,0,1-1.21-.35c-.43-.15-.87-.3-1.18-.44Z"/><path class="cls-2" d="M342.35,175l.88-1.06.42.32a11,11,0,0,0,.94.7c.35.24.71.47,1,.63l.46.27-.67,1.21-.49-.29a11.36,11.36,0,0,1-1.06-.68,11.66,11.66,0,0,1-1-.74Z"/><path class="cls-2" d="M338.66,171l1.14-.79.32.42c.19.26.44.6.72.92a10.34,10.34,0,0,0,.79.87l.37.38-1,1-.4-.41c-.24-.24-.54-.59-.84-.93s-.57-.72-.77-1Z"/><path class="cls-2" d="M336.24,166.08l1.32-.42s.27.8.61,1.58a14.66,14.66,0,0,0,.76,1.51l-1.21.68a16.55,16.55,0,0,1-.82-1.64C336.53,167,336.24,166.08,336.24,166.08Z"/><path class="cls-2" d="M335.45,160.67l1.39,0a3.73,3.73,0,0,0,0,.53c0,.31,0,.74.06,1.16a14.45,14.45,0,0,0,.25,1.66l-1.36.28a17.36,17.36,0,0,1-.27-1.82c-.06-.45,0-.92-.07-1.26A4.46,4.46,0,0,1,335.45,160.67Z"/><path class="cls-2" d="M336.48,155.3l1.3.48s-.07.2-.16.5a11.13,11.13,0,0,0-.33,1.12,13.47,13.47,0,0,0-.32,1.66l-1.37-.19a14.63,14.63,0,0,1,.35-1.81,12.27,12.27,0,0,1,.35-1.21Z"/><path class="cls-2" d="M339.09,150.54l1.12.82-.32.42c-.18.26-.4.63-.63,1a10.48,10.48,0,0,0-.58,1l-.24.47-1.25-.61.27-.51a11,11,0,0,1,.62-1.09c.24-.38.48-.78.68-1.06Z"/><path class="cls-2" d="M342.71,146.56l1,1-1.24,1.23a10.14,10.14,0,0,0-.81.85l-.35.41-1.05-.9s.14-.18.37-.43a11.42,11.42,0,0,1,.86-.91Z"/><path class="cls-2" d="M346.26,142.82l1.08.86s-.58.73-1.2,1.36l-1.22,1.3-1-1,1.19-1.27C345.73,143.47,346.26,142.82,346.26,142.82Z"/><path class="cls-2" d="M349.28,138.77l1.3.55-1,1.52-1.1,1.46-1.16-.76,1-1.36Z"/><path class="cls-2" d="M351.61,134.3l1.45.19-.21.53c-.12.33-.32.73-.52,1.14s-.39.83-.55,1.13l-.29.49-1.36-.43.27-.46c.15-.28.33-.66.52-1a11.59,11.59,0,0,0,.49-1.06Z"/><path class="cls-2" d="M352.89,129.43l1.5-.17s0,.23-.07.57a8.48,8.48,0,0,1-.22,1.23,14.49,14.49,0,0,1-.45,1.76l-1.48-.08a13.08,13.08,0,0,0,.44-1.64,8.5,8.5,0,0,0,.21-1.14C352.86,129.64,352.89,129.43,352.89,129.43Z"/><path class="cls-2" d="M352.54,124.43l1.44-.53a4.52,4.52,0,0,1,.15.55c.06.33.14.78.23,1.23s.07.9.1,1.24a3.1,3.1,0,0,1,0,.57l-1.49.29a2.68,2.68,0,0,0,0-.53c0-.32-.05-.74-.09-1.17s-.15-.83-.21-1.14A4,4,0,0,0,352.54,124.43Z"/><path class="cls-2" d="M350.18,120l1.28-.84s.57.71,1.07,1.47c.22.39.47.78.61,1.08l.23.52-1.4.64s-.08-.2-.21-.49-.37-.64-.58-1C350.72,120.66,350.18,120,350.18,120Z"/><path class="cls-2" d="M346.25,116.87l1-1.09a11.93,11.93,0,0,1,1.53,1,8.16,8.16,0,0,1,1,.77l.43.37-1.2.93s-.17-.13-.41-.34a6.28,6.28,0,0,0-.92-.71A11.49,11.49,0,0,0,346.25,116.87Z"/><path class="cls-2" d="M341.57,115l.69-1.27.55.15a11.9,11.9,0,0,1,1.19.4,15.58,15.58,0,0,1,1.69.68l-.93,1.16A24.13,24.13,0,0,0,341.57,115Z"/><path class="cls-2" d="M336.6,114.15l.32-1.37s.23,0,.57.06l1.24.17c.46,0,.91.14,1.24.21l.56.11-.58,1.31-.52-.1c-.31-.06-.73-.14-1.15-.19l-1.16-.15A3.62,3.62,0,0,0,336.6,114.15Z"/><path class="cls-2" d="M331.53,114l0-1.39s.89-.05,1.81,0l1.26,0a4.87,4.87,0,0,1,.57,0l-.2,1.38s-.21,0-.53,0l-1.17,0C332.4,114,331.53,114,331.53,114Z"/><path class="cls-2" d="M326.37,114.41,326.2,113s.88-.14,1.77-.2l1.78-.15.08,1.39-1.73.14C327.23,114.28,326.37,114.41,326.37,114.41Z"/><polygon class="cls-2" points="124.87 171.12 124.82 169.73 128.34 169.62 128.39 171.01 124.87 171.12"/><polygon class="cls-2" points="119.61 171.28 119.57 169.89 123.09 169.78 123.14 171.17 119.61 171.28"/><rect class="cls-2" x="114.34" y="170" width="3.53" height="1.39" transform="translate(-4.99 3.5) rotate(-1.69)"/><polygon class="cls-2" points="109.1 171.59 109.06 170.21 112.59 170.1 112.63 171.49 109.1 171.59"/><polygon class="cls-2" points="103.85 171.75 103.81 170.37 107.34 170.26 107.38 171.65 103.85 171.75"/><polygon class="cls-2" points="98.59 171.91 98.56 170.53 102.09 170.42 102.12 171.81 98.59 171.91"/><polygon class="cls-2" points="93.34 172.07 93.31 170.69 96.83 170.58 96.87 171.97 93.34 172.07"/><polygon class="cls-2" points="88.08 172.23 88.06 170.85 91.58 170.74 91.61 172.13 88.08 172.23"/><path class="cls-2" d="M82.94,172.52l-.22-1.37a18.11,18.11,0,0,1,2.43-.21l1.18,0,0,1.39-1.16,0A19,19,0,0,0,82.94,172.52Z"/><path class="cls-2" d="M78.14,174l-.6-1.25.52-.24a11.8,11.8,0,0,1,1.17-.47,11.1,11.1,0,0,1,1.19-.4l.55-.16.34,1.34-.5.15a11.06,11.06,0,0,0-1.11.37c-.4.15-.8.3-1.08.44Z"/><path class="cls-2" d="M73.94,176.81l-.92-1,.44-.36c.26-.23.62-.51,1-.78s.74-.53,1-.71l.49-.3.71,1.19-.45.28c-.27.17-.62.4-1,.66s-.68.51-.92.72Z"/><path class="cls-2" d="M70.64,180.62l-1.17-.75.33-.47a11.27,11.27,0,0,1,.75-1c.28-.36.57-.71.81-1l.38-.42,1,1-.36.39c-.22.23-.48.56-.75.89s-.51.68-.69.94S70.64,180.62,70.64,180.62Z"/><path class="cls-2" d="M68.54,185.19l-1.34-.38s.26-.88.61-1.73a16.45,16.45,0,0,1,.76-1.66l1.23.64a14.17,14.17,0,0,0-.71,1.54C68.77,184.38,68.54,185.19,68.54,185.19Z"/><path class="cls-2" d="M68,190.15l-1.38.08a4.06,4.06,0,0,1,0-.58c0-.34,0-.81,0-1.26a16.2,16.2,0,0,1,.22-1.83l1.36.24s-.15.83-.2,1.67c0,.42,0,.84,0,1.16A4.53,4.53,0,0,0,68,190.15Z"/><path class="cls-2" d="M69.05,195l-1.29.52s-.07-.22-.19-.54-.29-.75-.39-1.2a15.61,15.61,0,0,1-.4-1.79l1.37-.23a13.29,13.29,0,0,0,.36,1.64c.09.42.27.8.36,1.1Z"/><path class="cls-2" d="M71.61,199.37l-1.09.85-.35-.44c-.21-.27-.46-.66-.71-1a10.6,10.6,0,0,1-.65-1.07l-.28-.5,1.22-.64L70,197a9.08,9.08,0,0,0,.6,1c.24.35.46.71.66,1Z"/><path class="cls-2" d="M75.17,203.05l-.92,1-1.31-1.21a12.12,12.12,0,0,1-.88-.88l-.39-.41,1-.94.37.4c.21.24.52.53.83.82Z"/><path class="cls-2" d="M79,206.82l-1.06.9s-.54-.64-1.18-1.25l-1.22-1.23.95-1,1.27,1.27C78.36,206.12,79,206.82,79,206.82Z"/><path class="cls-2" d="M82.35,211.1l-1.29.58-1-1.38L79,209l1.13-.8,1.15,1.43Z"/><path class="cls-2" d="M85,215.85l-1.44.24s-.08-.2-.21-.49a10.31,10.31,0,0,0-.53-1c-.2-.37-.39-.76-.55-1l-.28-.45,1.35-.47.29.48c.18.3.38.71.59,1.11s.43.81.56,1.13Z"/><path class="cls-2" d="M86.46,221.05l-1.5-.12s0-.21-.08-.53a7.69,7.69,0,0,0-.25-1.14,13.12,13.12,0,0,0-.49-1.63l1.47-.12a14.33,14.33,0,0,1,.51,1.75,9,9,0,0,1,.25,1.23C86.42,220.82,86.46,221.05,86.46,221.05Z"/><path class="cls-2" d="M86.21,226.43,84.76,226a3.28,3.28,0,0,0,.12-.51c.05-.32.12-.74.18-1.16s0-.85,0-1.17a2.53,2.53,0,0,0,0-.53l1.49.24a2.9,2.9,0,0,1,0,.57c0,.34,0,.8-.06,1.25s-.14.9-.2,1.24A3.15,3.15,0,0,1,86.21,226.43Z"/><path class="cls-2" d="M83.83,231.25l-1.29-.79s.52-.68,1-1.4c.2-.38.42-.75.55-1l.2-.49,1.41.59-.22.53c-.14.31-.37.7-.58,1.1A17.56,17.56,0,0,1,83.83,231.25Z"/><path class="cls-2" d="M79.75,234.77l-1-1.06a13.5,13.5,0,0,0,1.41-.94A8.5,8.5,0,0,0,81,232l.4-.36,1.22.89-.42.39a7.65,7.65,0,0,1-1,.79A12.44,12.44,0,0,1,79.75,234.77Z"/><path class="cls-2" d="M74.79,237l-.73-1.24a24.38,24.38,0,0,0,3.17-1.22l1,1.13a15.76,15.76,0,0,1-1.67.73,11.71,11.71,0,0,1-1.17.43Z"/><path class="cls-2" d="M69.48,238.09l-.37-1.36a4,4,0,0,0,.52-.07l1.16-.18a10.86,10.86,0,0,0,1.14-.23l.52-.11.62,1.28-.56.13a9.46,9.46,0,0,1-1.23.25L70,238C69.7,238.07,69.48,238.09,69.48,238.09Z"/><path class="cls-2" d="M64.05,238.41V237s.87,0,1.71,0l1.17-.05c.32,0,.53,0,.53,0l.24,1.37a4.19,4.19,0,0,1-.57,0l-1.25.06C64.94,238.44,64.05,238.41,64.05,238.41Z"/><path class="cls-2" d="M58.73,238.16l.13-1.38s.87.11,1.74.14l1.74.09,0,1.39-1.79-.1C59.62,238.27,58.73,238.16,58.73,238.16Z"/><path class="cls-2" d="M249.36,94.77l.69-1.39.57.3a12.93,12.93,0,0,1,1.21.7,11.84,11.84,0,0,1,1.17.78l.52.37-.94,1.23-.48-.34A10.31,10.31,0,0,0,251,95.7a12.32,12.32,0,0,0-1.12-.66Z"/><path class="cls-2" d="M244,92.94l.29-1.52.62.14a12.47,12.47,0,0,1,1.36.35,12.19,12.19,0,0,1,1.33.44l.6.22L247.67,94l-.56-.21c-.33-.13-.78-.27-1.24-.4s-.91-.25-1.26-.33Z"/><path class="cls-2" d="M238.43,92.67l-.16-1.54s1-.1,2-.1a18.53,18.53,0,0,1,2.05.11l-.16,1.53a18.59,18.59,0,0,0-1.89-.09C239.37,92.58,238.43,92.67,238.43,92.67Z"/><path class="cls-2" d="M233.05,94.15l-.65-1.4a5.28,5.28,0,0,1,.59-.25c.36-.14.83-.36,1.32-.51a17.74,17.74,0,0,1,2-.53l.32,1.51a17.68,17.68,0,0,0-1.81.49c-.45.13-.88.34-1.21.46A4.86,4.86,0,0,0,233.05,94.15Z"/><path class="cls-2" d="M228.46,97.32l-1.07-1.12.48-.42a12.19,12.19,0,0,1,1.07-.91,17.36,17.36,0,0,1,1.69-1.16l.81,1.32a16.57,16.57,0,0,0-1.55,1.06,11.87,11.87,0,0,0-1,.84Z"/><path class="cls-2" d="M225,101.78,223.7,101s.13-.22.31-.55.49-.75.78-1.17a12.06,12.06,0,0,1,.84-1.12l.4-.5,1.17,1-.36.47a9.35,9.35,0,0,0-.78,1c-.26.39-.55.78-.73,1.09Z"/><path class="cls-2" d="M222.72,107l-1.46-.53s.36-.93.71-1.86a12.69,12.69,0,0,1,.54-1.28l.27-.57,1.39.66-.25.54a11.58,11.58,0,0,0-.51,1.22C223.07,106.1,222.72,107,222.72,107Z"/><path class="cls-2" d="M220.4,112.51l-1.37-.72s.44-.83.81-1.74.76-1.79.76-1.79l1.43.58-.78,1.83C220.88,111.59,220.4,112.51,220.4,112.51Z"/><path class="cls-2" d="M217.39,117.79l-1.14-1.08,1-1.61.92-1.65,1.3.84-1,1.78Z"/><path class="cls-2" d="M213.57,122.5l-.85-1.39.41-.43a10.14,10.14,0,0,0,.86-1c.3-.36.62-.72.84-1l.35-.48,1,1.2s-.16.2-.38.51-.58.68-.9,1.07a13,13,0,0,1-.94,1Z"/><path class="cls-2" d="M208.81,126.21l-.5-1.6.5-.31a7.91,7.91,0,0,0,1.08-.73,13.92,13.92,0,0,0,1.48-1.19l.74,1.48a17.78,17.78,0,0,1-1.6,1.25,8.58,8.58,0,0,1-1.16.77Z"/><path class="cls-2" d="M203.13,128.2l-.11-1.7a3.61,3.61,0,0,0,.59-.09l1.27-.3,1.23-.43a3.2,3.2,0,0,0,.55-.23l.37,1.65a3.79,3.79,0,0,1-.59.24l-1.32.45-1.36.32A4,4,0,0,1,203.13,128.2Z"/><path class="cls-2" d="M197.15,127.76l.28-1.68a18.84,18.84,0,0,0,1.85.41c.47.05.94.12,1.3.14h.59v1.7h-.64c-.38,0-.88-.09-1.39-.14C198.13,128,197.15,127.76,197.15,127.76Z"/><path class="cls-2" d="M191.8,125l.66-1.53a13.1,13.1,0,0,0,1.57,1.07,6.66,6.66,0,0,0,1.14.63l.53.26-.41,1.64-.58-.27a8.53,8.53,0,0,1-1.22-.67A13.59,13.59,0,0,1,191.8,125Z"/><path class="cls-2" d="M187.47,120.78l1-1.28a27.11,27.11,0,0,0,2.58,2.77l-.76,1.46a15.36,15.36,0,0,1-1.46-1.42,13.37,13.37,0,0,1-.94-1Z"/><path class="cls-2" d="M184.07,115.75l1.25-1a4.78,4.78,0,0,0,.29.52c.19.3.43.71.68,1.12a11.53,11.53,0,0,0,.71,1.09l.34.49-1.08,1.17-.36-.52a12.45,12.45,0,0,1-.78-1.17l-.73-1.2A5.23,5.23,0,0,1,184.07,115.75Z"/><path class="cls-2" d="M181.47,110.27l1.43-.59s.34.92.75,1.76c.2.43.4.87.54,1.19s.26.53.26.53l-1.31.82s-.13-.22-.29-.57l-.58-1.27C181.82,111.21,181.47,110.27,181.47,110.27Z"/><path class="cls-2" d="M179.51,104.66l1.48-.44s.25.94.59,1.86.63,1.84.63,1.84l-1.46.53-.64-1.89C179.76,105.63,179.51,104.66,179.51,104.66Z"/><circle class="cls-3" cx="426.01" cy="208.2" r="69.43" transform="translate(14.77 444.24) rotate(-55.9)"/><path class="cls-3" d="M70.44,143.4a70.9,70.9,0,1,0,70.9-70.9A70.9,70.9,0,0,0,70.44,143.4Z"/><path class="cls-3" d="M34.48,394.3a49,49,0,1,0,49-49A49,49,0,0,0,34.48,394.3Z"/><path class="cls-3" d="M230.16,92.81a63.95,63.95,0,1,0,64-63.95A64,64,0,0,0,230.16,92.81Z"/><path class="cls-3" d="M23.79,278.84A52.94,52.94,0,1,0,76.72,225.9,52.93,52.93,0,0,0,23.79,278.84Z"/><path class="cls-4" d="M310.81,302.07s114.48,84,93.95,98.66C365.12,429,289.17,354,289.17,354Z"/><path class="cls-5" d="M434.17,317.09c-.28-1.51-1.53-3.13-2.18-4.57a26.3,26.3,0,0,1-1.87-8.73c-.14-1.61-2.44-5.2-.83-6.31,2.64-1.83,4.93,4.84,5.93,6.19s2.51,2.29,3.87,2A3.36,3.36,0,0,0,441,304a66.7,66.7,0,0,0,3.78-7.33c.63-1.29,1.35-2.5,2.08-3.73.54-.91.84-2.41,1.62-3.11a1.75,1.75,0,0,1,2.51.38c.54.81-.06,1.36-.28,2-.51,1.52-1,3.06-1.42,4.6-.09.34-.78,1.79-.52,2.16,1.27,1.81,3.17-2,3.5-2.61.84-1.49,1.78-3,3.53-3.62a.87.87,0,0,1,.74,0,1,1,0,0,1,.32,1.09c-.43,2.18-1.73,4-2.11,6.22a1.15,1.15,0,0,0,.24,1.08c1.28,1.13,3.12-1,3.79-1.66.43-.41,1-.86,1.64-.56a1.25,1.25,0,0,1,.67,1.08,2.46,2.46,0,0,1-.29,1.13,24.29,24.29,0,0,1-1.41,3.16c-.29.47-1.28,1.74-.64,2.36a.72.72,0,0,0,.48.18,2.77,2.77,0,0,0,1.5-.64,1.56,1.56,0,0,1,1.65-.15,1.74,1.74,0,0,1,.5,2c-.61,2.35-2.17,4.34-3.51,6.27a69.9,69.9,0,0,1-11.76,13c-2.22,1.91-4.92,3.94-8.36,3.76a13.65,13.65,0,0,1-2.92-.55,15.32,15.32,0,0,1-3.74-1.42,6.37,6.37,0,0,1-2.74-2.89,1,1,0,0,1-.11-.49.87.87,0,0,1,.3-.51,26.85,26.85,0,0,0,3-3.42A7.07,7.07,0,0,0,434.17,317.09Z"/><path class="cls-4" d="M380.19,378.08c-3.42,5.07-9.2,19.14-2.23,25.56s26.79,2.52,41.66-16.06,26.66-58.34,26.66-58.34l-14.08-8S391,362.12,380.19,378.08Z"/><path class="cls-6" d="M209,480H335.72L335,456.78S278.3,465.3,209,454.2Z"/><path class="cls-4" d="M327,323.18c-6.93-29-48.13-32.81-82-29.45-22.84,2.26-52.32,20.21-54,48.09-1.07,18.28,5.51,94.69,15.32,117,0,0,46.27,9.07,130.28.5C336.67,459.33,341.87,385.13,327,323.18Z"/><path class="cls-7" d="M249.17,260.05s34.14,9.7,32,12.52.94,8.93.7,14.66c-.25,6.21,3.35,13,8.31,19.59,3.48,4.6-3.45,9.47-9.4,10.28-25.68,3.51-41.14-7.26-35.28-15.49C258.7,283.13,249.17,260.05,249.17,260.05Z"/><path class="cls-8" d="M281.91,287.23c.24-5.73-2.8-11.84-.7-14.66s-34.74-13.28-34.74-13.28a28.4,28.4,0,0,1,5.77,15.44c10.41,10.6,22.12,16.41,31.27,20.73A23,23,0,0,1,281.91,287.23Z"/><path class="cls-7" d="M287.77,214.84c13.88,12.23,24,52.31,7.74,70.2-8.94,9.83-38.69-2.85-51.65-26.09-1.69-3-5.28-20,3.35-37.71C251.09,213.2,273.35,202.13,287.77,214.84Z"/><path class="cls-9" d="M302.78,246.8c-.16,2.42-1.91-24-16-26.59-5.73-1.05-4.79,5.34-11.53,5.47-5.74.11-22.21-12.83-17.64,23,.22,1.72-1.44,3.63-2.28,5.12-1,1.82,1.62,6.29,1.45,8.41s-5.7-4.56-5.7-2.52c0,3.26,2.07,6.29,2.14,9.58.14,6-4.66,2.38-6.5-.57q-3.78-6.07-7.57-12.13a18.13,18.13,0,0,1-2.91-6.37c-.18-1-.64-5.9-1.44-6.26a11.16,11.16,0,0,0-5.31-1,42.69,42.69,0,0,1,3.32-15.19,25.21,25.21,0,0,1,10-11.63,33.57,33.57,0,0,1-5.84-.28,1.37,1.37,0,0,1-.9-.36c-.41-.48,0-1.22.42-1.71a46.26,46.26,0,0,1,10.57-9.11c2.4-1.51,9.21-5.94,12.21-4.5a6.05,6.05,0,0,1-2.69-2.56,104.56,104.56,0,0,1,24,2.63,39.21,39.21,0,0,1-3.61-6.57c6.73,2,13.13,5.67,17.48,11.18,5,6.27,5.84,13.46,4.49,21.11-.29,1.65.32,1.93.91,3.15a26.52,26.52,0,0,1,1.65,5.46A42,42,0,0,1,302.78,246.8Z"/><path class="cls-7" d="M260.65,257.63s-9.94-10.19-15.88-7.76,1.24,19.27,13.31,17.68S263.72,260.4,260.65,257.63Z"/><path class="cls-10" d="M267,252.33c-.32-.18.35.16.47.21a7.5,7.5,0,0,0,1.62.46c2.17.28,3.21-1.12,3.8-2.95.36-1.14,2.16-.43,1.8.71-1.3,4.05-5.2,5.11-8.87,3.05-1.08-.6.11-2.08,1.18-1.48Z"/><path class="cls-10" d="M287.5,245.86a6.55,6.55,0,0,0,1.77,1.26c2.1,1,3.34-.27,4.19-2.14.49-1.1,2.29-.39,1.79.71-1,2.21-2.7,4.15-5.45,3.59A7.9,7.9,0,0,1,286,247c-.86-.87.68-2,1.54-1.15Z"/><path class="cls-11" d="M291.34,236.12c-3.15-.77-5.74.74-7,3.7-.59,1.39-2.66.32-2.08-1a8,8,0,0,1,9.55-4.93,1.17,1.17,0,0,1-.48,2.28Z"/><path class="cls-11" d="M272.4,243.28c-2.82-1.59-5.72-.84-7.73,1.67-.94,1.18-2.65-.41-1.72-1.57a8,8,0,0,1,10.54-2.16c1.3.74.22,2.8-1.09,2.06Z"/><path class="cls-8" d="M280.31,243.89a11.6,11.6,0,0,0,.14,6.48c1.1,2.92,4.57,4,6.6,6.35,2.78,3.2.4,5.4-3.63,6.86-1,.35-1.54-.88-.57-1.22,9-3.27-2.05-7.26-3.73-11a12.38,12.38,0,0,1-.42-7.64c.2-.85,1.8-.67,1.61.18Z"/><path class="cls-12" d="M275.93,268s-.06,8,6.57,7.61,6.87-7.61,6.87-7.61Z"/><path class="cls-13" d="M263,266.34a4.52,4.52,0,1,0,2.43-5.92A4.52,4.52,0,0,0,263,266.34Z"/><path class="cls-13" d="M300.39,253.1a4.58,4.58,0,1,0,1.14,6.38A4.59,4.59,0,0,0,300.39,253.1Z"/><path class="cls-14" d="M288.91,379.39c-7.79-10.25-2.29-30.06-2.05-30.89l.3-1.06H314l.16,1.27c.13,1,3,24.61-4.68,33.31a9.25,9.25,0,0,1-7.16,3.3h-.09C296.38,385.32,291.88,383.33,288.91,379.39Zm.47-29.05c-1,4.15-4.13,19.44,1.84,27.3,2.4,3.17,6.12,4.78,11,4.78h.08a6.4,6.4,0,0,0,5-2.32c5.87-6.66,4.59-24.79,4.12-29.76Z"/><path class="cls-14" d="M231.76,379.39c-7.78-10.25-2.28-30.06-2-30.89l.3-1.06H256.9l.16,1.27c.12,1,3,24.61-4.69,33.31a9.24,9.24,0,0,1-7.16,3.3h-.09C239.23,385.32,234.74,383.33,231.76,379.39Zm.47-29.05c-1,4.15-4.13,19.44,1.84,27.3,2.41,3.17,6.12,4.78,11.05,4.78h.08a6.37,6.37,0,0,0,5-2.32c5.87-6.66,4.59-24.79,4.12-29.76Z"/><path class="cls-14" d="M303.82,413.12s-114.46,36.51-125.9,14.07c-8.84-17.35,5.83-66.13,12.94-87.36,2.82-8.43,6.38-18.57,13.45-24,6.33-4.85,15.4-5.49,20.77,1.54,10.74,14-4.55,69.32-4.55,69.32l76.27,2.76Z"/><path class="cls-5" d="M91.35,391.52c-.21-.56-3.58-3.38-4.13-3.31a1.65,1.65,0,0,1-1-.31,31.91,31.91,0,0,1-2.88-2c-.49-.36-1-.68-1.52-1a6.15,6.15,0,0,0-1.22-.86.62.62,0,0,0-.83.47c0,.35.3.46.52.67.49.46,1,.93,1.45,1.41.11.1.66.51.64.67-.09.8-1.57-.27-1.81-.43a3.67,3.67,0,0,0-2-.79.36.36,0,0,0-.27.1c-.09.13,0,.31.11.43.61.7,1.45,1.16,2,1.87a.45.45,0,0,1,.14.41c-.23.56-1.34.06-1.72-.07s-.54-.16-.71,0a.42.42,0,0,0,0,.46,1.29,1.29,0,0,0,.34.36,12.42,12.42,0,0,0,1.16.9c.2.13.82.43.72.74a.21.21,0,0,1-.14.12,1.18,1.18,0,0,1-.67,0,.62.62,0,0,0-.63.17c-.16.24,0,.55.22.76a10.76,10.76,0,0,0,2.56,1.7c1,.53,1.92,1,2.9,1.44a36.26,36.26,0,0,0,4,1.5,5.65,5.65,0,0,0,3.8.18,5.06,5.06,0,0,0,.94-.58,4.58,4.58,0,0,0,1.06-1,1.9,1.9,0,0,0,.4-1.37.42.42,0,0,0-.06-.19.42.42,0,0,0-.21-.13,14.17,14.17,0,0,1-1.78-.79A3.35,3.35,0,0,1,91.35,391.52Z"/><path class="cls-5" d="M112.24,399.63c2.28,1.3-5.26,10.23-8.74,8.21a101.91,101.91,0,0,1-16.24-12.06l3.45-4.67S105.05,395.54,112.24,399.63Z"/><polygon class="cls-4" points="95.7 390.33 87.88 399.64 105.45 412.59 114.69 398.56 95.7 390.33"/><path class="cls-15" d="M91.14,382.49a13.12,13.12,0,1,1-13.21-13A13.12,13.12,0,0,1,91.14,382.49Z"/><path class="cls-16" d="M90.47,382.49a12.45,12.45,0,1,1-12.54-12.36A12.44,12.44,0,0,1,90.47,382.49Z"/><path class="cls-15" d="M87.83,382.51A9.81,9.81,0,1,1,78,372.77,9.79,9.79,0,0,1,87.83,382.51Z"/><path class="cls-17" d="M87.43,382.92A9.4,9.4,0,1,1,78,373.6,9.4,9.4,0,0,1,87.43,382.92Z"/><path class="cls-15" d="M77.28,388.67v-1.42a6.1,6.1,0,0,1-2.54-.62l.44-1.75a5.17,5.17,0,0,0,2.47.64c.86,0,1.43-.34,1.43-.93s-.48-.92-1.59-1.29c-1.6-.52-2.69-1.26-2.71-2.71a2.75,2.75,0,0,1,2.51-2.66v-1.42h1.46v1.31a5.33,5.33,0,0,1,2.16.47L80.48,380a5,5,0,0,0-2.15-.49c-1,0-1.28.43-1.28.84s.53.8,1.8,1.27c1.78.62,2.5,1.43,2.51,2.77a2.85,2.85,0,0,1-2.63,2.78v1.52Z"/><path class="cls-5" d="M91.76,391.54A5.7,5.7,0,0,0,89,388.13c-2-.85-2.87-2.78-3.74-2.33s-.57,1.12.27,2.31c1.26,1.78,1.64,3.17,1,3.92S91.11,395.18,91.76,391.54Z"/><path class="cls-18" d="M258.41,110.25s-16.25-16.86-7.75-20.9c0,0,4.75-.92,7.75,9.65,0,0-7.75-16.52-1.75-17.47,0,0,5.75-4.46,7.25,14.79,0,0-.75-11.82,4.5-12.54,0,0,11.75-3.52,1,26.76Z"/><path class="cls-19" d="M260.56,110.4s-7.84-8.13-3.74-10.08c0,0,2.29-.44,3.74,4.65,0,0-3.74-8-.85-8.42,0,0,2.77-2.15,3.5,7.13,0,0-.36-5.7,2.17-6,0,0,5.66-1.7.48,12.9Z"/><ellipse class="cls-20" cx="294.96" cy="110.95" rx="44.31" ry="2.7"/><path class="cls-21" d="M294.76,75.32A33.69,33.69,0,0,0,261.07,109h67.39A33.7,33.7,0,0,0,294.76,75.32Z"/><path class="cls-19" d="M322.7,90.16,291,109h37.46A33.64,33.64,0,0,0,322.7,90.16Z"/><path class="cls-22" d="M323.39,91.24c-5-7.78-11-12.61-20.64-15L291.53,109h8.33Z"/><path class="cls-23" d="M308.24,78.13a33.6,33.6,0,0,0-13.48-2.81,30.2,30.2,0,0,0-9,1.23L293.48,109h1.18Z"/><path class="cls-24" d="M261.07,109h32.41L268.21,88.27C262.9,94.38,261.07,103.49,261.07,109Z"/><path class="cls-25" d="M294.76,99.46a9.56,9.56,0,0,0-9.55,9.56h19.11A9.56,9.56,0,0,0,294.76,99.46Z"/><path class="cls-26" d="M294.76,102.21A6.81,6.81,0,0,0,288,109h13.61A6.81,6.81,0,0,0,294.76,102.21Z"/><rect class="cls-27" x="259.44" y="105.34" width="71.25" height="5.87" rx="2"/><path class="cls-28" d="M303.47,89.13c-.26.11-2.58,2.17-3.47,1.86-.65-.23-.5-2.41-.5-2.41s.81.48,2.52-1.4C303.46,85.6,303.47,89.13,303.47,89.13Z"/><path class="cls-28" d="M299.75,90.89c-1.44-.64-4.7-4-4.7-4l1-.22,4.69,2.66S301.19,91.53,299.75,90.89Z"/><path class="cls-28" d="M296.34,86.64a1.39,1.39,0,0,1,0-.35,2,2,0,0,0-.09-.63c0-.11,0-.39-.11-.45s-.22.4-.25.5a.27.27,0,0,1-.22.19.31.31,0,0,1-.18-.09,5.1,5.1,0,0,1-.46-.47,2.66,2.66,0,0,0-.24-.23,1.21,1.21,0,0,0-.19-.2.12.12,0,0,0-.17.06c0,.06,0,.09.08.14l.21.3s.1.12.09.14-.27-.1-.31-.13a.58.58,0,0,0-.34-.21h-.05a.06.06,0,0,0,0,.08c.08.15.22.26.3.41s0,.06,0,.08-.24,0-.31-.07-.09,0-.12,0a.08.08,0,0,0,0,.09l.05.07a.86.86,0,0,0,.18.2s.13.11.1.16l0,0a.18.18,0,0,1-.12,0s-.09,0-.12,0,0,.1,0,.15a2.11,2.11,0,0,0,.4.39q.24.19.48.36c.31.21.66.36.95.59a.61.61,0,0,0,.14.1.37.37,0,0,0,.31,0,.68.68,0,0,0,.44-.39c0-.06.08-.18,0-.24s-.11-.07-.15-.1a.66.66,0,0,1-.17-.12A.62.62,0,0,1,296.34,86.64Z"/><path class="cls-29" d="M306,84.71c1-.5,2.08-.62,2.55.19a2.15,2.15,0,0,1-.47,2,13.46,13.46,0,0,1-5.72,3.41c-.83.19-2.31-1.44-1.26-2.45A22.46,22.46,0,0,1,306,84.71Z"/><path class="cls-30" d="M321.35,109.3a7,7,0,0,1,1.11,1.09c.2.68-1.36,2.43-2.22,2.68-.12,0-.34,0-.36-.38s.66-1.52.2-1.85S321.35,109.3,321.35,109.3Z"/><path class="cls-31" d="M315.3,102.9s0-7.68-.21-8.93A2.64,2.64,0,0,0,311,92.13c-1.21.83-.6,12.07,2.09,13.09C315.17,106,315.3,102.9,315.3,102.9Z"/><path class="cls-31" d="M319.24,111.39c-1.92-1.38-7.24-6.35-7.6-8.16s2.28-2.17,4.14-.33c1.21,1.19,5.23,5.27,6.25,6.46.24.29-.62,1.08-1.07,1.47C321,110.83,319.79,111.79,319.24,111.39Z"/><path class="cls-30" d="M306.9,111.28a6.77,6.77,0,0,1,.14,1.55c-.29.65-2.61,1-3.42.61-.12,0-.25-.25,0-.53s1.49-.73,1.36-1.28S306.9,111.28,306.9,111.28Z"/><path class="cls-31" d="M307.54,101.08s3.89-4.44,4.53-5.53a2.64,2.64,0,0,0-1.93-4.07c-1.47-.15-8.36,8.76-6.89,11.32C304.36,104.76,307.54,101.08,307.54,101.08Z"/><path class="cls-31" d="M303.94,111.5c-.56-2.29-1.39-9.53-.5-11.13s3.15-.18,3.37,2.42c.15,1.69.57,7.41.57,9,0,.38-1.26.44-1.86.43C305.51,112.19,304.11,112.17,303.94,111.5Z"/><path class="cls-32" d="M312.84,94.88c.35.6,1.28,2.08,2.14,1.56.12-.07,0-.27-.09-.2-.71.44-1.56-.94-1.85-1.45-.07-.12-.26,0-.2.09Z"/><path class="cls-32" d="M308.26,95.73c-.56.41-2,1.38-2.59.55-.07-.11.09-.25.16-.14.48.69,1.82-.23,2.29-.57.11-.08.25.07.14.16Z"/><path class="cls-32" d="M310.78,96.07a2.45,2.45,0,0,0-.25,2.17c.06.18-.22.26-.29.08a2.64,2.64,0,0,1,.33-2.46c.11-.15.32.06.21.21Z"/><path class="cls-24" d="M304.27,87.11c-.11-1.92,3.17-2.55,5.4-3,1.5-.32,2.54,0,3.44,2.65a28.26,28.26,0,0,1,1.68,5.87c0,.31-.31.73-.45,1-.85,1.6-8.14,3-8.47,1.33A30.84,30.84,0,0,1,304.27,87.11Z"/><path class="cls-33" d="M308.17,81.48s-2,1.19-1.83,1.33.09.56.2.91a2,2,0,0,1-.2,1.35c-.15.34.38.52.77.46,1.69-.23,2.49-1.17,2-1.57A2.88,2.88,0,0,1,308.17,81.48Z"/><path class="cls-34" d="M306.54,83.72c-.11-.35,0-.78-.2-.91s2-1.43,2-1.43a1.82,1.82,0,0,0-.11,1.05,4.53,4.53,0,0,1-1.7,2.11A1.91,1.91,0,0,0,306.54,83.72Z"/><path class="cls-33" d="M305.15,79.71c-.64.94-.61,3.4.63,4.16.69.42,2.27-.8,2.68-2.34a2.92,2.92,0,0,0-.79-2.12A1.87,1.87,0,0,0,305.15,79.71Z"/><path class="cls-26" d="M304.76,81.8c0,.13-.27-1.41.53-1.79.33-.16.37.22.78.12s1.12-1.1,1.41,1c0,.1.14.18.21.26s0,.38.05.5.26-.35.3-.24-.09.77.18.75.21-.25.28-.35a4.42,4.42,0,0,0,.56-.8,2.05,2.05,0,0,0,.11-1.1,1.9,1.9,0,0,0-.44-1,1.33,1.33,0,0,0-1-.45,5.17,5.17,0,0,1-.68,0c-.2,0-.4,0-.6,0a.69.69,0,0,1-.36-.18,1.09,1.09,0,0,0-1-.11.91.91,0,0,0-.57.76c0,.19.09,2.05.13,2.19A2.49,2.49,0,0,0,304.76,81.8Z"/><path class="cls-33" d="M307.43,81.73s.44-.75.83-.71.23,1.13-.52,1.23S307.29,81.94,307.43,81.73Z"/><path class="cls-10" d="M306.7,81.7s0,0,0,0l-.07,0c-.11,0-.18,0-.23-.09s-.12,0-.08.06a.29.29,0,0,0,.48,0c.05-.05,0-.11-.08-.06Z"/><path class="cls-10" d="M305.59,81.67a.22.22,0,0,1-.07.09c-.09.08-.17,0-.24,0s-.12,0-.08.06.2.17.32.1a.37.37,0,0,0,.16-.17c0-.06-.06-.09-.09,0Z"/><path class="cls-11" d="M305.26,81.25a.29.29,0,0,1,.4.08c0,.06.14,0,.09-.08a.41.41,0,0,0-.55-.11c-.07,0,0,.14.06.11Z"/><path class="cls-11" d="M306.3,81.33a.3.3,0,0,1,.41,0c.07,0,.13-.06.07-.11a.43.43,0,0,0-.56,0c-.06.06,0,.14.08.09Z"/><path class="cls-35" d="M305.92,81.47a.78.78,0,0,1,.09.33c0,.16-.17.26-.24.41s.06.27.28.29c.05,0,.06-.07,0-.07-.5,0,0-.39,0-.6a.75.75,0,0,0-.09-.39s-.1,0-.08,0Z"/><path class="cls-12" d="M306,83.22s-.3-.28-.06-.52a.41.41,0,0,1,.54,0Z"/><path class="cls-34" d="M307.1,82.37a.24.24,0,1,1-.47-.05.24.24,0,0,1,.47.05Z"/><path class="cls-34" d="M305.05,82.22a.24.24,0,1,1,0,.34A.25.25,0,0,1,305.05,82.22Z"/><path class="cls-33" d="M309.7,90.57c-.15.23-1.07,3.19-2,3.39-.67.15-1.67-1.8-1.67-1.8s.94,0,1.42-2.5C307.86,87.56,309.7,90.57,309.7,90.57Z"/><path class="cls-33" d="M307.44,94c-1.56.2-6.11-1-6.11-1l.75-.71,5.4-.17S309,93.81,307.44,94Z"/><path class="cls-33" d="M302.32,92.14a1.48,1.48,0,0,1-.15-.31,1.72,1.72,0,0,0-.4-.49c-.09-.08-.18-.36-.33-.33s0,.45.05.56a.25.25,0,0,1-.1.27.27.27,0,0,1-.2,0c-.21,0-.42-.11-.63-.16l-.32-.08a1.34,1.34,0,0,0-.27-.07.12.12,0,0,0-.11.14c0,.06.08.06.13.08l.34.15s.15,0,.16.07-.29.06-.34,0a.78.78,0,0,0-.4,0s0,0,0,0,0,.05,0,.06.33.11.48.19,0,0,0,.06-.23.1-.3.1a.12.12,0,0,0-.12,0,.08.08,0,0,0,0,.09l.08,0,.26.08s.17,0,.17.07,0,0,0,0a.22.22,0,0,1-.11,0,.09.09,0,0,0-.1.07c0,.05,0,.09.09.11a2.1,2.1,0,0,0,.55.13l.59.06a8.51,8.51,0,0,1,1.13,0,.43.43,0,0,0,.16,0,.42.42,0,0,0,.27-.16.7.7,0,0,0,.17-.57c0-.06,0-.19-.09-.22a.54.54,0,0,0-.18,0l-.2,0A.61.61,0,0,1,302.32,92.14Z"/><path class="cls-29" d="M309.55,85.49c.57-.93,1.46-1.61,2.29-1.16a2.12,2.12,0,0,1,.64,2,13.36,13.36,0,0,1-3.12,5.89c-.61.59-2.71,0-2.34-1.45A22.28,22.28,0,0,1,309.55,85.49Z"/><polygon class="cls-26" points="294.76 80.72 293.48 104.24 296.19 104.24 294.76 80.72"/><path class="cls-20" d="M181.86,169.38c0,1.3-19,2.36-42.34,2.36s-42.35-1.06-42.35-2.36,19-2.36,42.35-2.36S181.86,168.07,181.86,169.38Z"/><path class="cls-18" d="M178,168.75s12.8-13.29,8.67-18.33a2.76,2.76,0,0,0-3.33-.71c-1.53.75-3.71,2.84-5.34,8.58,0,0,7.2-15.36,1.63-16.25,0,0-5.87-1.66-6.75,13.75,0,0,.7-11-4.18-11.65,0,0-10.92-3.27-.93,24.88Z"/><path class="cls-19" d="M176,168.89s7.29-7.57,3.47-9.37c0,0-2.13-.42-3.47,4.32,0,0,3.47-7.4.78-7.83,0,0-2.57-2-3.25,6.63,0,0,.34-5.3-2-5.62,0,0-5.27-1.58-.45,12Z"/><polygon class="cls-36" points="128.7 120.36 103.99 139.24 128.7 139.29 151.44 120.36 128.7 120.36"/><polygon class="cls-4" points="174.68 139.24 128.53 139.24 151.44 120.41 174.68 139.24"/><polygon class="cls-36" points="172.72 139.24 130.5 139.24 151.46 122.01 172.72 139.24"/><polygon class="cls-27" points="172.72 139.24 133.11 139.24 152.77 123.08 172.72 139.24"/><rect class="cls-37" x="133.11" y="116.45" width="8.38" height="8.38"/><polygon class="cls-38" points="141.5 124.83 143.21 120.64 145.77 120.36 145.77 116.45 141.5 116.45 141.5 124.83"/><polygon class="cls-37" points="129.05 127.18 127.13 128.65 134.64 128.81 136.81 127.18 129.05 127.18"/><polygon class="cls-37" points="123.38 132.69 121.46 134.16 128.97 134.33 131.13 132.69 123.38 132.69"/><polygon class="cls-39" points="125.02 125.32 123.1 126.79 130.61 126.96 132.77 125.32 125.02 125.32"/><rect class="cls-40" x="132.77" y="115.26" width="13.56" height="3.1"/><rect class="cls-41" x="141.49" y="115.26" width="4.84" height="3.1"/><rect class="cls-27" x="130.5" y="139.24" width="42.22" height="30.75"/><rect class="cls-4" x="106.48" y="139.24" width="24.02" height="30.75"/><rect class="cls-42" x="111.29" y="143.83" width="13.97" height="18.39"/><rect class="cls-43" x="112.39" y="145.28" width="11.76" height="15.49"/><rect class="cls-42" x="117.73" y="143.83" width="1.1" height="18.39"/><rect class="cls-42" x="134.41" y="143.83" width="13.97" height="18.39"/><rect class="cls-43" x="135.51" y="145.28" width="11.76" height="15.49"/><rect class="cls-42" x="140.84" y="143.83" width="1.1" height="18.39"/><rect class="cls-42" x="153.67" y="143.83" width="13.97" height="18.39"/><rect class="cls-43" x="154.77" y="145.28" width="11.76" height="15.49"/><rect class="cls-42" x="160.1" y="143.83" width="1.1" height="18.39"/><path class="cls-24" d="M109.28,158.94c0,3.23-1.7,4.83-3.67,4.83s-3.56-1.53-3.58-4.62,1.67-4.78,3.69-4.78S109.28,156,109.28,158.94Zm-5.6.14c-.05,2,.68,3.44,2,3.44s2-1.46,2-3.49c0-1.86-.54-3.41-2-3.41S103.68,157.15,103.68,159.08Zm1.78,11.11,9-15.82h1.32l-9,15.82Zm13.78-4.92c0,3.23-1.7,4.83-3.65,4.83s-3.56-1.53-3.58-4.59,1.67-4.8,3.7-4.8S119.24,162.35,119.24,165.27Zm-5.61.14c0,2,.73,3.44,2,3.44s2-1.46,2-3.48c0-1.86-.54-3.42-2-3.42S113.63,163.48,113.63,165.41Z"/><path class="cls-15" d="M171.79,126.69a8.22,8.22,0,1,1-8.28-8.16A8.23,8.23,0,0,1,171.79,126.69Z"/><path class="cls-16" d="M171.37,126.7a7.8,7.8,0,1,1-7.86-7.75A7.79,7.79,0,0,1,171.37,126.7Z"/><path class="cls-15" d="M169.72,126.71a6.15,6.15,0,1,1-6.2-6.11A6.15,6.15,0,0,1,169.72,126.71Z"/><path class="cls-17" d="M169.46,127a5.89,5.89,0,1,1-5.93-5.85A5.88,5.88,0,0,1,169.46,127Z"/><path class="cls-15" d="M163.1,130.57v-.89a3.7,3.7,0,0,1-1.59-.39l.27-1.09a3.37,3.37,0,0,0,1.55.4c.53,0,.9-.22.89-.59s-.3-.58-1-.81c-1-.32-1.69-.79-1.7-1.69a1.74,1.74,0,0,1,1.57-1.68V123H164v.82a3.25,3.25,0,0,1,1.35.3l-.26,1.06a3.08,3.08,0,0,0-1.35-.31c-.61,0-.8.27-.8.53s.33.5,1.13.79c1.11.39,1.56.9,1.57,1.74a1.79,1.79,0,0,1-1.65,1.74v.95Z"/><rect class="cls-41" x="109.23" y="124.6" width="23.47" height="6.78" rx="2"/><path class="cls-44" d="M115.53,129.76a2.35,2.35,0,0,1-1,.18,1.72,1.72,0,0,1-1.82-1.87,1.83,1.83,0,0,1,1.93-1.93,2.07,2.07,0,0,1,.87.16l-.11.39a1.72,1.72,0,0,0-.75-.15,1.37,1.37,0,0,0-1.43,1.52,1.34,1.34,0,0,0,1.41,1.48,1.8,1.8,0,0,0,.78-.16Z"/><path class="cls-44" d="M116.12,126.25a4.81,4.81,0,0,1,.91-.08,1.48,1.48,0,0,1,1.06.3.92.92,0,0,1,.29.7,1,1,0,0,1-.69.94v0a.93.93,0,0,1,.54.74,6.73,6.73,0,0,0,.28,1H118a4.53,4.53,0,0,1-.24-.88c-.11-.51-.31-.7-.74-.71h-.45v1.59h-.47Zm.47,1.68h.49c.51,0,.83-.28.83-.7s-.35-.69-.85-.69a2.15,2.15,0,0,0-.47,0Z"/><path class="cls-44" d="M121,128.15h-1.43v1.33h1.59v.4h-2.07V126.2h2v.4h-1.51v1.16H121Z"/><path class="cls-44" d="M121.74,126.25a6,6,0,0,1,1-.08,2.11,2.11,0,0,1,1.49.46,1.69,1.69,0,0,1,.52,1.32,2,2,0,0,1-.53,1.43,2.25,2.25,0,0,1-1.63.53,7.09,7.09,0,0,1-.86,0Zm.47,3.25a2.28,2.28,0,0,0,.48,0,1.42,1.42,0,0,0,1.57-1.56,1.31,1.31,0,0,0-1.49-1.42,2.54,2.54,0,0,0-.56,0Z"/><path class="cls-44" d="M125.85,126.2v3.68h-.48V126.2Z"/><path class="cls-44" d="M127.37,126.6h-1.12v-.4H129v.4h-1.13v3.28h-.48Z"/><circle class="cls-19" cx="61.45" cy="400.32" r="8.25"/><polygon class="cls-44" points="57.1 400.59 61.02 404.82 66.91 396.94 65.47 395.82 60.99 402.09 58.24 399.32 57.1 400.59"/><path class="cls-18" d="M392.63,230.81s-16.25-16.86-7.75-20.89c0,0,4.75-.93,7.75,9.64,0,0-7.75-16.51-1.75-17.47,0,0,5.75-4.46,7.25,14.79,0,0-.75-11.82,4.5-12.53,0,0,11.75-3.52,1,26.75Z"/><path class="cls-19" d="M394.78,231s-7.84-8.13-3.74-10.07c0,0,2.29-.45,3.74,4.65,0,0-3.74-8-.84-8.43,0,0,2.77-2.15,3.49,7.13,0,0-.36-5.7,2.17-6,0,0,5.67-1.7.48,12.9Z"/><path class="cls-20" d="M470.32,231.68c0,1.49-19.84,2.7-44.31,2.7s-44.31-1.21-44.31-2.7S401.54,229,426,229,470.32,230.19,470.32,231.68Z"/><rect class="cls-16" x="398.33" y="223.87" width="1.19" height="2.47"/><rect class="cls-4" x="405.88" y="195.74" width="50.11" height="34.97" rx="5.04"/><rect class="cls-27" x="404.42" y="195.74" width="50.11" height="34.97" rx="5.04"/><rect class="cls-45" x="404.42" y="202.32" width="50.11" height="6.33"/><path class="cls-46" d="M447.72,211.69H411.35a.73.73,0,0,1-.73-.73h0a.73.73,0,0,1,.73-.73h36.37a.73.73,0,0,1,.73.73h0A.73.73,0,0,1,447.72,211.69Z"/><g class="cls-47"><path class="cls-44" d="M408.07,230.7h18.48l28-20.11v-11.2a3.66,3.66,0,0,0-3.65-3.65H440.61l-36.19,24.94v6.37A3.66,3.66,0,0,0,408.07,230.7Z"/></g><path class="cls-48" d="M390.66,229.58V232h0c.38.64,4,1.15,8.36,1.15s8-.51,8.37-1.15h0v-2.42Z"/><path class="cls-16" d="M393.72,229.65v3.21c.85.11,1.84.19,2.92.23v-3.44Z"/><path class="cls-16" d="M397.19,230.23v2.89l.72,0v-2.91Z"/><path class="cls-16" d="M407.47,229.58c0,.6-3.77,1.09-8.41,1.09s-8.4-.49-8.4-1.09,3.77-1.09,8.4-1.09S407.47,229,407.47,229.58Z"/><path class="cls-48" d="M405.43,229.64c0,.46-2.85.83-6.37.83s-6.36-.37-6.36-.83,2.85-.82,6.36-.82S405.43,229.18,405.43,229.64Z"/><path class="cls-16" d="M404.79,229.73c0,.41-2.56.74-5.73.74s-5.72-.33-5.72-.74,2.56-.75,5.72-.75S404.79,229.32,404.79,229.73Z"/><path class="cls-48" d="M393.25,226.42v2.42h0c.38.65,4,1.15,8.36,1.15s8-.5,8.37-1.15h0v-2.42Z"/><path class="cls-16" d="M396.31,226.49v3.21c.85.11,1.84.19,2.92.24v-3.45Z"/><path class="cls-16" d="M399.78,227.07V230l.72,0v-2.91Z"/><path class="cls-16" d="M410.06,226.42c0,.6-3.77,1.09-8.41,1.09s-8.4-.49-8.4-1.09,3.76-1.09,8.4-1.09S410.06,225.82,410.06,226.42Z"/><path class="cls-48" d="M408,226.49c0,.45-2.85.82-6.37.82s-6.36-.37-6.36-.82,2.85-.83,6.36-.83S408,226,408,226.49Z"/><path class="cls-16" d="M407.38,226.57c0,.41-2.56.74-5.73.74s-5.72-.33-5.72-.74,2.56-.75,5.72-.75S407.38,226.16,407.38,226.57Z"/><path class="cls-48" d="M389.92,222.78v2.42h0c.39.64,4,1.15,8.37,1.15s8-.51,8.36-1.15h0v-2.42Z"/><path class="cls-16" d="M393,222.85v3.21c.85.1,1.84.18,2.92.23v-3.44Z"/><path class="cls-16" d="M396.45,223.43v2.89h.72v-2.9Z"/><path class="cls-16" d="M406.73,222.78c0,.6-3.77,1.09-8.4,1.09s-8.41-.49-8.41-1.09,3.77-1.1,8.41-1.1S406.73,222.17,406.73,222.78Z"/><path class="cls-48" d="M404.69,222.84c0,.46-2.85.83-6.36.83s-6.37-.37-6.37-.83,2.85-.83,6.37-.83S404.69,222.38,404.69,222.84Z"/><path class="cls-16" d="M404.05,222.92c0,.42-2.56.75-5.72.75s-5.73-.33-5.73-.75,2.56-.74,5.73-.74S404.05,222.51,404.05,222.92Z"/><path class="cls-49" d="M397.63,230.51a3.22,3.22,0,0,0,.25-.52,2.56,2.56,0,0,0,.3.49,2.28,2.28,0,0,0,.51.25,2.56,2.56,0,0,0-.49.3,2.28,2.28,0,0,0-.25.51,2.56,2.56,0,0,0-.3-.49,2.84,2.84,0,0,0-.51-.25A3,3,0,0,0,397.63,230.51Z"/><polygon class="cls-16" points="429.02 185.69 424.74 192.64 431 192.64 423.19 206.15 429.02 203.91 423.97 220.16 438.39 198.09 430.79 200.4 437.78 190.42 429.02 190.42 432.27 185.69 429.02 185.69"/><path class="cls-50" d="M435.74,202.79c0-.24-.7-2.78-.13-3.35.41-.41,2,.52,2,.52s-.66.43.14,2.44C438.45,204.09,435.74,202.79,435.74,202.79Z"/><path class="cls-50" d="M435.77,199.28c1-.86,4.84-2.09,4.84-2.09l-.21.86-3.78,2.61S434.75,200.15,435.77,199.28Z"/><path class="cls-50" d="M440.29,198.26c.1,0,.18.11.26.15a1.54,1.54,0,0,0,.51.17c.1,0,.29.17.39.08s-.23-.31-.29-.38a.19.19,0,0,1-.06-.24.22.22,0,0,1,.13-.1,4.68,4.68,0,0,1,.53-.17l.27-.1c.06,0,.16,0,.22-.08a.1.1,0,0,0,0-.14s-.09,0-.14,0l-.31.05s-.12,0-.14,0,.18-.17.22-.19a.55.55,0,0,0,.29-.18s0,0,0,0,0,0-.07,0-.28.08-.42.08a.06.06,0,0,1-.07,0c-.05-.08.12-.17.17-.21s.07-.05.06-.09,0,0-.05,0a.11.11,0,0,0-.08,0,1.8,1.8,0,0,0-.22.06s-.13.06-.16,0a0,0,0,0,1,0,0,.24.24,0,0,1,.06-.08.1.1,0,0,0,0-.1s-.07,0-.12,0a1.44,1.44,0,0,0-.45.17,4.78,4.78,0,0,0-.45.23c-.28.16-.52.37-.81.51l-.13.07a.32.32,0,0,0-.11.23.59.59,0,0,0,.14.49s.11.12.16.12a1,1,0,0,0,.14-.08.75.75,0,0,1,.15-.09A.46.46,0,0,1,440.29,198.26Z"/><path class="cls-29" d="M438.19,206.35c0,.93-.3,1.82-1.09,1.88-.46,0-1.15-.55-1.38-1.11a11.57,11.57,0,0,1-.48-5.65c.16-.7,2-1.23,2.34-.05A18.82,18.82,0,0,1,438.19,206.35Z"/><path class="cls-26" d="M446,230a6.52,6.52,0,0,1,.83,1.3c0,.69-1.84,2-2.71,2.08-.13,0-.33-.1-.27-.44s1-1.32.6-1.74S446,230,446,230Z"/><path class="cls-31" d="M441.93,220.84s1.38-5.64,1.44-6.89a2.6,2.6,0,0,0-3.54-2.67c-1.35.53-2.9,11.68-.86,13C440.82,225.52,441.93,220.84,441.93,220.84Z"/><path class="cls-31" d="M443.54,231.59c-1.54-1.75-5.56-7.69-5.51-9.5s2.67-1.59,4.05.58c.9,1.41,3.87,6.22,4.58,7.58.18.33-.57,1-1.09,1.25C445.55,231.51,444,232.09,443.54,231.59Z"/><path class="cls-26" d="M437.41,229.88a6.75,6.75,0,0,1,.39,1.49c-.18.67-2.38,1.35-3.23,1.14-.12,0-.28-.2-.12-.51s1.33-.95,1.11-1.46S437.41,229.88,437.41,229.88Z"/><path class="cls-31" d="M436.38,219.87s3.07-4.94,3.51-6.11a2.61,2.61,0,0,0-2.54-3.64c-1.44.09-6.38,10.21-4.86,12.12C433.87,224,436.38,219.87,436.38,219.87Z"/><path class="cls-31" d="M434.58,230.58c-.92-2.14-2.9-9-2.29-10.74s3-.68,3.66,1.81c.42,1.62,1.75,7.11,2,8.62.06.37-.86.77-1.43.86C436.51,231.13,434.84,231.19,434.58,230.58Z"/><path class="cls-32" d="M440.52,214.17c.34.52,1.26,1.78,2,1.26.1-.07,0-.23-.09-.16-.61.43-1.44-.75-1.73-1.19-.07-.1-.24,0-.17.09Z"/><path class="cls-32" d="M434.72,214.93a2.2,2.2,0,0,0,1.57-1.15c.08-.15.31,0,.23.14a2.4,2.4,0,0,1-1.81,1.28c-.17,0-.16-.25,0-.27Z"/><path class="cls-24" d="M437,204.23c.59-1.61,3.5-1,5.49-.58,1.34.27,2.07.93,1.88,3.39a24.46,24.46,0,0,1-.69,5.4c-.1.26-.51.49-.73.66-1.25,1-7.73-.39-7.4-1.89A27.25,27.25,0,0,1,437,204.23Z"/><path class="cls-50" d="M442.09,201.45s-2.08.34-2,.51-.11.51-.14.84a1.8,1.8,0,0,1-.61,1.06c-.23.24.15.56.49.65,1.5.35,2.49-.16,2.19-.67A2.59,2.59,0,0,1,442.09,201.45Z"/><path class="cls-51" d="M440,202.8c0-.33.24-.66.14-.84s2.14-.54,2.14-.54a1.58,1.58,0,0,0-.44.85,4.11,4.11,0,0,1-2.1,1.18A2.84,2.84,0,0,0,440,202.8Z"/><path class="cls-50" d="M440.13,199c-.84.58-1.63,2.66-.83,3.71.44.57,2.16.07,3-1.1a2.63,2.63,0,0,0,0-2A1.68,1.68,0,0,0,440.13,199Z"/><path class="cls-26" d="M439.12,200.59c0,.13.24-1.27,1-1.33.32,0,.23.32.61.36s1.3-.55.84,1.33c0,.09.06.2.1.29s-.13.32-.13.44.34-.21.33-.1-.33.61-.09.69.69-.84.85-1.72c.05-.23.28-1.11.3-1.3,0-.4-1.92-1.11-2.8-1.15-.51,0-.4.69-.6,1.13A3.76,3.76,0,0,0,439.12,200.59Z"/><path class="cls-50" d="M441.39,201.41s.61-.48.93-.32-.18,1-.84.87S441.2,201.54,441.39,201.41Z"/><path class="cls-26" d="M440,198.85a.26.26,0,0,1-.28.26.28.28,0,0,1,0-.55A.28.28,0,0,1,440,198.85Z"/><path class="cls-26" d="M440.56,198.28a.52.52,0,1,1-1-.05.52.52,0,0,1,.54-.49A.52.52,0,0,1,440.56,198.28Z"/><path class="cls-26" d="M441.47,198.72a.69.69,0,1,1-.93-1,.69.69,0,0,1,1,0A.69.69,0,0,1,441.47,198.72Z"/><path class="cls-26" d="M442.44,198.48a.49.49,0,0,1-.51.47.51.51,0,0,1-.47-.52A.5.5,0,0,1,442,198,.48.48,0,0,1,442.44,198.48Z"/><path class="cls-26" d="M443.38,199.14a.61.61,0,0,1-.64.58.62.62,0,0,1-.58-.64.61.61,0,0,1,1.22.06Z"/><path class="cls-26" d="M443.37,199.86a.43.43,0,0,1-.46.42.43.43,0,0,1-.42-.46.44.44,0,0,1,.46-.42A.44.44,0,0,1,443.37,199.86Z"/><path class="cls-26" d="M443.07,200.29a.44.44,0,1,1-.42-.46A.44.44,0,0,1,443.07,200.29Z"/><path class="cls-26" d="M439.63,199.24a.27.27,0,0,1-.29.26.28.28,0,0,1,0-.56A.28.28,0,0,1,439.63,199.24Z"/><path class="cls-26" d="M443.07,200.85a.37.37,0,0,1-.74,0,.37.37,0,0,1,.38-.35A.37.37,0,0,1,443.07,200.85Z"/><path class="cls-52" d="M440.92,201.05s0,0,0,0l-.08,0c-.12,0-.18,0-.22-.14s-.11,0-.09.05a.3.3,0,0,0,.48.12c.06,0,0-.11-.07-.07Z"/><path class="cls-52" d="M439.82,200.8l-.09.08c-.11.06-.18,0-.23-.09s-.13,0-.09,0a.27.27,0,0,0,.3.17.45.45,0,0,0,.19-.14c0-.05,0-.11-.08-.06Z"/><path class="cls-51" d="M439.58,200.24a.31.31,0,0,1,.39.16.06.06,0,1,0,.1-.06.42.42,0,0,0-.52-.22c-.08,0,0,.15,0,.12Z"/><path class="cls-51" d="M440.62,200.53a.29.29,0,0,1,.41.05c.06,0,.14,0,.08-.09a.41.41,0,0,0-.56-.07.07.07,0,0,0,.07.11Z"/><path class="cls-51" d="M440.18,200.67a.56.56,0,0,1,0,.34c0,.16-.22.23-.32.36s0,.29.23.35c.05,0,.07-.06,0-.07-.49-.13.07-.39.14-.6a.61.61,0,0,0,0-.4c0-.05-.1,0-.09,0Z"/><path class="cls-12" d="M440.39,202.11s-.08.32-.33.23a.31.31,0,0,1-.2-.36Z"/><path class="cls-51" d="M441.19,201.79a.24.24,0,0,1-.3.16.26.26,0,0,1-.16-.3.24.24,0,0,1,.3-.16A.24.24,0,0,1,441.19,201.79Z"/><path class="cls-51" d="M439.25,201.3a.25.25,0,0,1,.34,0,.24.24,0,0,1-.37.31A.25.25,0,0,1,439.25,201.3Z"/><path class="cls-50" d="M444.73,209.49c0,.25,1,2.84.41,3.49-.4.46-2.16-.38-2.16-.38s.66-.51-.34-2.54C441.79,208.35,444.73,209.49,444.73,209.49Z"/><path class="cls-50" d="M445,213.15c-1,1-4.88,2.58-4.88,2.58l.15-.91,3.73-3S446,212.16,445,213.15Z"/><path class="cls-50" d="M440.34,214.59a1.15,1.15,0,0,1-.27-.14,1.83,1.83,0,0,0-.56-.13c-.1,0-.31-.16-.41-.06s.26.31.34.38a.21.21,0,0,1,.08.24c0,.06-.08.09-.13.12a5.09,5.09,0,0,1-.54.22l-.27.13a1.57,1.57,0,0,0-.23.09.11.11,0,0,0,0,.16s.09,0,.14,0l.32-.08s.13,0,.15,0-.18.19-.22.21a.6.6,0,0,0-.28.21s0,0,0,0a.06.06,0,0,0,.07,0c.15,0,.28-.1.43-.12s.06,0,.07,0-.1.19-.16.23-.07.06-.05.1,0,0,.06,0a.11.11,0,0,0,.08,0l.23-.09s.13-.07.16,0a0,0,0,0,1,0,0,.28.28,0,0,1-.07.09.13.13,0,0,0,0,.1.12.12,0,0,0,.13,0,2.11,2.11,0,0,0,.46-.21l.45-.28c.28-.19.51-.44.8-.6a.57.57,0,0,0,.13-.08.37.37,0,0,0,.1-.26.6.6,0,0,0-.19-.49s-.12-.12-.18-.11-.09.07-.13.09l-.15.1A.52.52,0,0,1,440.34,214.59Z"/><path class="cls-29" d="M441.88,206c-.11-1,.16-1.93,1-2.06a1.92,1.92,0,0,1,1.52,1.05,12,12,0,0,1,1,5.86c-.11.75-1.94,1.44-2.44.24A19.71,19.71,0,0,1,441.88,206Z"/><path class="cls-48" d="M447.14,228.9v2.43h0c.38.64,4,1.15,8.36,1.15s8-.51,8.37-1.15h0V228.9Z"/><path class="cls-16" d="M450.2,229v3.21c.85.1,1.84.18,2.92.23V229Z"/><path class="cls-16" d="M453.67,229.56v2.89h.72v-2.9Z"/><path class="cls-16" d="M463.94,228.9c0,.61-3.76,1.1-8.4,1.1s-8.4-.49-8.4-1.1,3.76-1.09,8.4-1.09S463.94,228.3,463.94,228.9Z"/><path class="cls-48" d="M461.91,229c0,.46-2.85.83-6.37.83s-6.36-.37-6.36-.83,2.85-.83,6.36-.83S461.91,228.51,461.91,229Z"/><path class="cls-16" d="M461.27,229.05c0,.41-2.57.75-5.73.75s-5.73-.34-5.73-.75,2.57-.74,5.73-.74S461.27,228.64,461.27,229.05Z"/><path class="cls-48" d="M449.73,225.75v2.42h0c.38.64,4,1.15,8.36,1.15s8-.51,8.37-1.15h0v-2.42Z"/><path class="cls-16" d="M452.79,225.82V229c.85.11,1.84.19,2.92.24v-3.45Z"/><path class="cls-16" d="M456.26,226.4v2.89l.72,0V226.4Z"/><path class="cls-16" d="M466.53,225.75c0,.6-3.76,1.09-8.4,1.09s-8.4-.49-8.4-1.09,3.76-1.09,8.4-1.09S466.53,225.14,466.53,225.75Z"/><path class="cls-48" d="M464.5,225.81c0,.46-2.86.83-6.37.83s-6.36-.37-6.36-.83,2.85-.82,6.36-.82S464.5,225.36,464.5,225.81Z"/><path class="cls-16" d="M463.86,225.9c0,.41-2.57.74-5.73.74s-5.73-.33-5.73-.74,2.57-.75,5.73-.75S463.86,225.49,463.86,225.9Z"/><path class="cls-48" d="M446.4,222.1v2.42h0c.38.65,4,1.15,8.36,1.15s8-.5,8.37-1.15h0V222.1Z"/><path class="cls-16" d="M449.46,222.18v3.21c.85.1,1.84.18,2.92.23v-3.44Z"/><path class="cls-16" d="M452.93,222.76v2.88l.72,0v-2.9Z"/><path class="cls-16" d="M463.21,222.1c0,.6-3.77,1.09-8.41,1.09s-8.4-.49-8.4-1.09,3.76-1.09,8.4-1.09S463.21,221.5,463.21,222.1Z"/><rect class="cls-16" x="454.8" y="223.19" width="1.19" height="2.47"/><path class="cls-49" d="M454.1,229.83a2.43,2.43,0,0,0,.26-.51,3,3,0,0,0,.29.49,2.53,2.53,0,0,0,.52.25,1,1,0,0,0-.74.81,1,1,0,0,0-.81-.74A2.28,2.28,0,0,0,454.1,229.83Z"/><rect class="cls-53" x="73.39" y="250.95" width="30.58" height="38.25"/><path class="cls-44" d="M101.14,266.38H76.48c-.2,0-.36-.24-.36-.54h0c0-.3.16-.54.36-.54h24.66c.2,0,.36.24.36.54h0C101.5,266.14,101.34,266.38,101.14,266.38Z"/><path class="cls-44" d="M101.14,268.38H76.48c-.2,0-.36-.24-.36-.54h0c0-.3.16-.54.36-.54h24.66c.2,0,.36.24.36.54h0C101.5,268.14,101.34,268.38,101.14,268.38Z"/><path class="cls-44" d="M101.14,271.38H76.48c-.2,0-.36-.24-.36-.54h0c0-.3.16-.54.36-.54h24.66c.2,0,.36.24.36.54h0C101.5,271.14,101.34,271.38,101.14,271.38Z"/><path class="cls-44" d="M101.14,273.38H76.48c-.2,0-.36-.24-.36-.54h0c0-.3.16-.54.36-.54h24.66c.2,0,.36.24.36.54h0C101.5,273.14,101.34,273.38,101.14,273.38Z"/><path class="cls-44" d="M101.14,277.38H76.48c-.2,0-.36-.24-.36-.54h0c0-.3.16-.54.36-.54h24.66c.2,0,.36.24.36.54h0C101.5,277.14,101.34,277.38,101.14,277.38Z"/><path class="cls-44" d="M101.14,279.38H76.48c-.2,0-.36-.24-.36-.54h0c0-.3.16-.54.36-.54h24.66c.2,0,.36.24.36.54h0C101.5,279.14,101.34,279.38,101.14,279.38Z"/><path class="cls-44" d="M101.14,282.38H76.48c-.2,0-.36-.24-.36-.54h0c0-.3.16-.54.36-.54h24.66c.2,0,.36.24.36.54h0C101.5,282.14,101.34,282.38,101.14,282.38Z"/><path class="cls-44" d="M101.14,284.38H76.48c-.2,0-.36-.24-.36-.54h0c0-.3.16-.54.36-.54h24.66c.2,0,.36.24.36.54h0C101.5,284.14,101.34,284.38,101.14,284.38Z"/><rect class="cls-31" x="73.39" y="250.95" width="30.58" height="2.67"/><circle class="cls-54" cx="96.14" cy="252.29" r="0.77"/><circle class="cls-55" cx="98.14" cy="252.29" r="0.77"/><circle class="cls-56" cx="100.14" cy="252.29" r="0.77"/><path class="cls-18" d="M40.68,299.26s-16.25-16.86-7.75-20.9c0,0,4.75-.92,7.75,9.65,0,0-7.75-16.51-1.75-17.47,0,0,5.75-4.46,7.25,14.79,0,0-.75-11.82,4.5-12.53,0,0,11.75-3.53,1,26.75Z"/><path class="cls-19" d="M42.83,299.41s-7.84-8.13-3.74-10.08c0,0,2.29-.44,3.74,4.66,0,0-3.74-8-.84-8.43,0,0,2.77-2.15,3.49,7.13,0,0-.36-5.7,2.17-6,0,0,5.67-1.7.48,12.9Z"/><path class="cls-20" d="M117.65,301c0,1.42-18.83,2.56-42.06,2.56S33.52,302.43,33.52,301s18.84-2.56,42.07-2.56S117.65,299.6,117.65,301Z"/><rect class="cls-4" x="59.57" y="262.83" width="16.87" height="9.66" rx="2.49"/><rect class="cls-57" x="61.63" y="264.62" width="12.76" height="7.31" rx="2.49"/><rect class="cls-14" x="46.23" y="268.13" width="44.9" height="31.75" rx="3.05"/><path class="cls-36" d="M82.26,269.49h-33a2.59,2.59,0,0,0-3,2.35c0,12.15,9,22.29,19.52,22.29s19.09-9.85,19.09-22C84.84,269.73,83.47,269.48,82.26,269.49Z"/><path class="cls-4" d="M82.26,268.13h-33a2.59,2.59,0,0,0-3,2.35c0,12.15,9,22.29,19.52,22.29s19.09-9.85,19.09-22C84.84,268.37,83.47,268.12,82.26,268.13Z"/><polygon class="cls-14" points="82.61 268.14 86.98 268.12 83.86 271.71 82.61 268.14"/><rect class="cls-16" x="62.97" y="289.9" width="6.82" height="4.41" rx="1.56"/><path class="cls-36" d="M88.73,299.88h-1.5a2.4,2.4,0,0,1-2.39-2.4v-27a2.4,2.4,0,0,1,2.39-2.4l1.43,0a2.46,2.46,0,0,1,2.47,2.38v27A2.41,2.41,0,0,1,88.73,299.88Z"/><rect class="cls-41" x="78.45" y="256.65" width="20.46" height="5.91" rx="1.74"/><path class="cls-44" d="M83.94,261.15a2.18,2.18,0,0,1-.85.15,1.51,1.51,0,0,1-1.59-1.63A1.6,1.6,0,0,1,83.18,258a1.68,1.68,0,0,1,.76.14l-.1.34a1.47,1.47,0,0,0-.65-.13,1.19,1.19,0,0,0-1.25,1.32A1.16,1.16,0,0,0,83.18,261a1.67,1.67,0,0,0,.67-.13Z"/><path class="cls-44" d="M84.45,258.08a4.66,4.66,0,0,1,.8-.06,1.33,1.33,0,0,1,.93.26.8.8,0,0,1,.25.61.86.86,0,0,1-.6.82h0a.84.84,0,0,1,.47.65,5.34,5.34,0,0,0,.24.88h-.42a3.5,3.5,0,0,1-.22-.77c-.09-.44-.26-.61-.64-.62h-.39v1.39h-.42Zm.42,1.47h.42c.45,0,.73-.25.73-.61s-.3-.6-.74-.6a1.65,1.65,0,0,0-.41,0Z"/><path class="cls-44" d="M88.68,259.75H87.43v1.15h1.39v.35H87V258h1.74v.35H87.43v1h1.25Z"/><path class="cls-44" d="M89.35,258.08a7.64,7.64,0,0,1,.89-.06,1.87,1.87,0,0,1,1.3.4,1.49,1.49,0,0,1,.45,1.15,1.72,1.72,0,0,1-.46,1.25,2,2,0,0,1-1.42.46,5.53,5.53,0,0,1-.76,0Zm.42,2.84a2.42,2.42,0,0,0,.42,0,1.24,1.24,0,0,0,1.36-1.37,1.14,1.14,0,0,0-1.3-1.23,2.68,2.68,0,0,0-.48,0Z"/><path class="cls-44" d="M92.94,258v3.21h-.42V258Z"/><path class="cls-44" d="M94.27,258.39h-1V258h2.38v.35h-1v2.86h-.42Z"/><path class="cls-58" d="M106.92,275.49a1.18,1.18,0,0,1,.48-1.51c.34-.14.75.19,1.07.53.75.82,2.46,4.64,1.51,5.6S107.46,277.25,106.92,275.49Z"/><path class="cls-58" d="M107.2,280.72s-1.75.87-1.9,1c-.9.72-1.48.89-1.28,1,.36.21,1.58-.36,1.77-.44a8.64,8.64,0,0,0,.95-.53A3.73,3.73,0,0,0,107.2,280.72Z"/><path class="cls-58" d="M109.91,280.18a20.6,20.6,0,0,1-4.12,2.1v-1l3.25-2.59S110.75,279.36,109.91,280.18Z"/><path class="cls-30" d="M99.88,299.39a7.28,7.28,0,0,1,.18,1.71c-.32.71-2.94,1.1-3.87.72-.13-.05-.28-.27,0-.58s1.67-.82,1.51-1.43S99.88,299.39,99.88,299.39Z"/><path class="cls-31" d="M101.09,280l4.33,1.89a36.23,36.23,0,0,1-2.22,5.8h0l-1.46,3a3.25,3.25,0,0,0-.29,1l-.85,7.54a1.08,1.08,0,0,1-.54.83,3.33,3.33,0,0,1-2.46.33c-1.55-.42-.82-9.64-.51-10.78a58.55,58.55,0,0,1,2.09-5.48Z"/><path class="cls-59" d="M111,298.68s.94,1.14.92,1.41a28.31,28.31,0,0,1-3,2.67.4.4,0,0,1-.3-.48c.06-.4,1-1.61.64-2.06S111,298.68,111,298.68Z"/><path class="cls-30" d="M111.73,299.88c-.65-.06-3.25,2.54-2.9,2.82.51.41,2.34-1,2.84-1.78S111.73,299.88,111.73,299.88Z"/><path class="cls-31" d="M103.4,281.27l3.94-.94a38.71,38.71,0,0,1,1.2,6.37h0l.13,3.4a3,3,0,0,0,.21,1l2.72,7a1.1,1.1,0,0,1-.08,1,3.49,3.49,0,0,1-2,1.57c-1.54.44-5.15-8-5.4-9.16a55.76,55.76,0,0,1-.7-5.88Z"/><polygon class="cls-31" points="102.64 280.76 103.06 280.74 103.2 282.05 102.52 282.07 102.64 280.76"/><polygon class="cls-31" points="105.53 280.5 105.82 280.39 106.38 281.58 105.77 281.8 105.53 280.5"/><path class="cls-32" d="M101.46,281.91c-.25.73-.93,2.52-2,2.14-.14-.05-.09-.28.05-.23.87.32,1.48-1.35,1.69-2,0-.14.27-.09.23.05Z"/><path class="cls-32" d="M104.13,284.69a5.46,5.46,0,0,1-.47,2.29c-.07.16-.31,0-.24-.12a5,5,0,0,0,.44-2.16c0-.17.26-.18.27,0Z"/><path class="cls-58" d="M103.15,268.71c-.3.7-.63,3,.82,3.09.62,0,1.57-1.12,1.73-2.24a1.66,1.66,0,0,0-1.1-1.49A1.09,1.09,0,0,0,103.15,268.71Z"/><path class="cls-58" d="M103.2,270.67a1.34,1.34,0,0,1,0,1.8c-.83.81,2.18.42,2.18.42L105,270Z"/><path class="cls-60" d="M109.52,275.76s-1.08-3.44-2.62-3,.18,4.05.18,4.05A4.34,4.34,0,0,0,109.52,275.76Z"/><path class="cls-41" d="M102.77,272.4a7.21,7.21,0,0,1,4.33.3c2.09.84.17,4.19,0,4.73-1,2.8.65,2.63.31,3.26-.59,1.14-3.5,1.28-5.32.64-.72-.25-1.29-.71-1.11-1,1.26-2.26.25-3.37.31-4.86S101.4,272.73,102.77,272.4Z"/><path class="cls-58" d="M101,274.19a1.18,1.18,0,0,1,1.53-.41c.31.2.24.73.13,1.18-.28,1.08-2.3,4.35-3.83,4.33C97.52,279.27,99.78,275.59,101,274.19Z"/><path class="cls-41" d="M102.14,276.52s2.31-2.76,1.09-3.81-3.31,2.34-3.31,2.34S101.05,276.43,102.14,276.52Z"/><path class="cls-26" d="M104.56,267.21c-1.11.09-1.46.93-1,1.88.75,1.5-1.25,1-.2,2.58.84,1.3.11,1-.18,2.6-.33,1.81,3.3,3.4,5.75,1.24,1.2-1.06,2.51-2.52,0-4.89-.77-.74-1.44-.66-2-2A2,2,0,0,0,104.56,267.21Z"/><path class="cls-58" d="M96.05,276.88s-1-1.2-1.32-1,.6.82.6.82Z"/><path class="cls-58" d="M96.71,277.26s-1.67-1-1.85-1.08c-1.09-.37-1.31-.55-1.3-.32,0,.42.91,1,1.08,1.14a6.59,6.59,0,0,0,1,.41A3.85,3.85,0,0,0,96.71,277.26Z"/><path class="cls-58" d="M98.52,279.26a15.7,15.7,0,0,1-3.88-2.36l.72-.29,3.87,1.14S99.67,279.55,98.52,279.26Z"/><path class="cls-15" d="M403.18,369.79a47.36,47.36,0,1,1-47.7-47A47.35,47.35,0,0,1,403.18,369.79Z"/><path class="cls-16" d="M400.78,369.81a45,45,0,1,1-45.28-44.63A44.95,44.95,0,0,1,400.78,369.81Z"/><path class="cls-15" d="M391.25,369.87a35.43,35.43,0,1,1-35.69-35.17A35.43,35.43,0,0,1,391.25,369.87Z"/><path class="cls-17" d="M389.77,371.37a33.94,33.94,0,1,1-34.18-33.68A33.94,33.94,0,0,1,389.77,371.37Z"/><path class="cls-15" d="M353.14,392.11l0-5.11a21.65,21.65,0,0,1-9.16-2.25l1.56-6.3a19.11,19.11,0,0,0,8.95,2.3c3.07,0,5.16-1.22,5.14-3.38s-1.74-3.32-5.74-4.64c-5.77-1.89-9.72-4.55-9.76-9.78,0-4.73,3.28-8.46,9-9.63l0-5.12,5.28,0,0,4.73a19.64,19.64,0,0,1,7.82,1.72l-1.51,6.09a18.15,18.15,0,0,0-7.78-1.77c-3.49,0-4.62,1.54-4.6,3.05,0,1.77,1.91,2.88,6.49,4.58,6.43,2.22,9,5.16,9.05,10s-3.31,8.91-9.49,10l.05,5.5Z"/><path class="cls-7" d="M297.37,392.62s14.41-10.59,18-10.85-1.78,7.36-6.52,11.91S297.37,392.62,297.37,392.62Z"/><path class="cls-7" d="M266.67,397c.67.55,5.81-1,6.63-1.18,7.24-1.28,14.7-1.44,21.57-4.35,3.23-1.37,16.52-1.75,17.53-1.84a33.91,33.91,0,0,0,9.42-2.6c2.45-1,5.08-2.58,6.67.44a8.84,8.84,0,0,0,2.36,2.44,2.2,2.2,0,0,1,.85,1.46,4.38,4.38,0,0,1-.1.8,4.58,4.58,0,0,0,0,1.77,3.46,3.46,0,0,1,.21,1.18,1.75,1.75,0,0,1-.82,1.23,31.48,31.48,0,0,1-3.3,2c-1.35.69-2.59,1.59-4,2.19-1.15.49-2.32.73-3.48,1.24-5.07,2.25-16.72,5.29-17.18,5.39a111.16,111.16,0,0,1-18.16,1.91C281.18,409,266.68,397,266.67,397Z"/></g></g></svg>